<svg class="typst-doc" viewBox="0 0 56.693 56.693" width="56.693pt" height="56.693pt" xmlns="http://www.w3.org/2000/svg" xmlns:xlink="http://www.w3.org/1999/xlink" xmlns:h5="http://www.w3.org/1999/xhtml">
    <g>
        <g transform="translate(0 0)">
            <g class="typst-group">
                <g>
                    <g transform="translate(0 0)">
                        <g class="typst-group">
                            <g>
                                <g transform="translate(0 0)">
                                    <g class="typst-group">
                                        <g>
                                            <g transform="translate(0 0)">
                                                <g class="typst-group" clip-path="url(#cB30548BA82FF66651B8AE39B07293B8C)">
                                                    <g>
                                                        <g transform="translate(0 0)">
                                                            <path class="typst-shape" fill="none" stroke="oklab(59.027% 0.04670 -0.15289)" stroke-width="0.7" stroke-linecap="butt" stroke-linejoin="miter" stroke-miterlimit="4" d="M 40.388226 0 C 40.388226 0 41.231274 3.1009874 41.231274 3.1009874 C 41.231274 3.1009874 41.51043 5.153909 41.51043 5.153909 C 41.51043 5.153909 41.231274 5.59031 41.231274 5.59031 C 41.231274 5.59031 36.077362 7.3501196 36.077362 7.3501196 C 36.077362 7.3501196 32.918976 5.153909 32.918976 5.153909 C 32.918976 5.153909 31.462072 0 31.462072 0 "/>
                                                        </g>
                                                        <g transform="translate(0 0)">
                                                            <path class="typst-shape" fill="none" stroke="oklab(63.088% 0.04151 -0.13587)" stroke-width="0.7" stroke-linecap="butt" stroke-linejoin="miter" stroke-miterlimit="4" d="M 43.491707 0 C 43.491707 0 44.245407 5.153909 44.245407 5.153909 C 44.245407 5.153909 41.231274 9.865829 41.231274 9.865829 C 41.231274 9.865829 37.497875 10.307818 37.497875 10.307818 C 37.497875 10.307818 36.077362 10.412123 36.077362 10.412123 C 36.077362 10.412123 35.86642 10.307818 35.86642 10.307818 C 35.86642 10.307818 30.923454 7.078494 30.923454 7.078494 C 30.923454 7.078494 29.451168 5.153909 29.451168 5.153909 C 29.451168 5.153909 28.54203 0 28.54203 0 "/>
                                                        </g>
                                                        <g transform="translate(0 0)">
                                                            <path class="typst-shape" fill="none" stroke="oklab(67.149% 0.03631 -0.11885)" stroke-width="0.7" stroke-linecap="butt" stroke-linejoin="miter" stroke-miterlimit="4" d="M 0 32.75989 C 0 32.75989 1.9948716 36.077362 1.9948716 36.077362 C 1.9948716 36.077362 2.54075 41.231274 2.54075 41.231274 C 2.54075 41.231274 0.41197604 46.38518 0.41197604 46.38518 C 0.41197604 46.38518 0 46.823364 0 46.823364 "/>
                                                        </g>
                                                        <g transform="translate(0 0)">
                                                            <path class="typst-shape" fill="none" stroke="oklab(67.149% 0.03631 -0.11885)" stroke-width="0.7" stroke-linecap="butt" stroke-linejoin="miter" stroke-miterlimit="4" d="M 46.16418 0 C 46.16418 0 46.38518 1.4191717 46.38518 1.4191717 C 46.38518 1.4191717 47.064495 5.153909 47.064495 5.153909 C 47.064495 5.153909 46.38518 7.352974 46.38518 7.352974 C 46.38518 7.352974 45.11769 10.307818 45.11769 10.307818 C 45.11769 10.307818 41.231274 13.037555 41.231274 13.037555 C 41.231274 13.037555 36.077362 13.063929 36.077362 13.063929 C 36.077362 13.063929 30.923454 10.587651 30.923454 10.587651 C 30.923454 10.587651 30.592617 10.307818 30.592617 10.307818 C 30.592617 10.307818 26.770891 5.153909 26.770891 5.153909 C 26.770891 5.153909 25.919296 0 25.919296 0 "/>
                                                        </g>
                                                        <g transform="translate(0 0)">
                                                            <path class="typst-shape" fill="none" stroke="oklab(71.209% 0.03111 -0.10183)" stroke-width="0.7" stroke-linecap="butt" stroke-linejoin="miter" stroke-miterlimit="4" d="M 0 28.058702 C 0 28.058702 2.7878718 30.923454 2.7878718 30.923454 C 2.7878718 30.923454 4.8434052 36.077362 4.8434052 36.077362 C 4.8434052 36.077362 5.153909 39.671673 5.153909 39.671673 C 5.153909 39.671673 5.4105697 41.231274 5.4105697 41.231274 C 5.4105697 41.231274 5.153909 42.303593 5.153909 42.303593 C 5.153909 42.303593 4.4304557 46.38518 4.4304557 46.38518 C 4.4304557 46.38518 0 51.09747 0 51.09747 "/>
                                                        </g>
                                                        <g transform="translate(0 0)">
                                                            <path class="typst-shape" fill="none" stroke="oklab(71.209% 0.03111 -0.10183)" stroke-width="0.7" stroke-linecap="butt" stroke-linejoin="miter" stroke-miterlimit="4" d="M 49.60929 0 C 49.60929 0 50.185974 5.153909 50.185974 5.153909 C 50.185974 5.153909 49.342007 10.307818 49.342007 10.307818 C 49.342007 10.307818 46.38518 14.346959 46.38518 14.346959 C 46.38518 14.346959 43.862846 15.461727 43.862846 15.461727 C 43.862846 15.461727 41.231274 16.48582 41.231274 16.48582 C 41.231274 16.48582 36.077362 15.962319 36.077362 15.962319 C 36.077362 15.962319 35.003418 15.461727 35.003418 15.461727 C 35.003418 15.461727 30.923454 14.161289 30.923454 14.161289 C 30.923454 14.161289 26.367603 10.307818 26.367603 10.307818 C 26.367603 10.307818 25.769545 9.357834 25.769545 9.357834 C 25.769545 9.357834 23.289593 5.153909 23.289593 5.153909 C 23.289593 5.153909 22.575258 0 22.575258 0 "/>
                                                        </g>
                                                        <g transform="translate(0 0)">
                                                            <path class="typst-shape" fill="none" stroke="oklab(75.270% 0.02592 -0.08481)" stroke-width="0.7" stroke-linecap="butt" stroke-linejoin="miter" stroke-miterlimit="4" d="M 0 16.441904 C 0 16.441904 5.153909 19.190174 5.153909 19.190174 C 5.153909 19.190174 10.307818 20.498964 10.307818 20.498964 C 10.307818 20.498964 15.461585 20.615637 15.461585 20.615637 C 15.461585 20.615637 15.3456 25.769545 15.3456 25.769545 C 15.3456 25.769545 15.308817 30.923454 15.308817 30.923454 C 15.308817 30.923454 15.289464 36.077362 15.289464 36.077362 C 15.289464 36.077362 15.274573 41.231274 15.274573 41.231274 C 15.274573 41.231274 15.259353 46.38518 15.259353 46.38518 C 15.259353 46.38518 15.238521 51.53909 15.238521 51.53909 C 15.238521 51.53909 15.195048 56.693 15.195048 56.693 "/>
                                                        </g>
                                                        <g transform="translate(0 0)">
                                                            <path class="typst-shape" fill="none" stroke="oklab(75.270% 0.02592 -0.08481)" stroke-width="0.7" stroke-linecap="butt" stroke-linejoin="miter" stroke-miterlimit="4" d="M 56.693 29.497993 C 56.693 29.497993 51.53909 26.749722 51.53909 26.749722 C 51.53909 26.749722 46.38518 25.826153 46.38518 25.826153 C 46.38518 25.826153 41.243923 25.769545 41.243923 25.769545 C 41.243923 25.769545 41.231274 25.7695 41.231274 25.7695 C 41.231274 25.7695 36.077362 25.652874 36.077362 25.652874 C 36.077362 25.652874 30.923454 24.344084 30.923454 24.344084 C 30.923454 24.344084 25.769545 21.595814 25.769545 21.595814 C 25.769545 21.595814 20.615637 20.672243 20.615637 20.672243 C 20.615637 20.672243 15.461786 20.615637 15.461786 20.615637 C 15.461786 20.615637 15.461727 20.615591 15.461727 20.615591 C 15.461727 20.615591 15.105924 15.461727 15.105924 15.461727 C 15.105924 15.461727 15.216048 10.307818 15.216048 10.307818 C 15.216048 10.307818 15.24723 5.153909 15.24723 5.153909 C 15.24723 5.153909 15.26514 0 15.26514 0 "/>
                                                        </g>
                                                        <g transform="translate(0 0)">
                                                            <path class="typst-shape" fill="none" stroke="oklab(79.331% 0.02072 -0.06779)" stroke-width="0.7" stroke-linecap="butt" stroke-linejoin="miter" stroke-miterlimit="4" d="M 0 6.8062596 C 0 6.8062596 2.1251328 5.153909 2.1251328 5.153909 C 2.1251328 5.153909 4.955584 0 4.955584 0 "/>
                                                        </g>
                                                        <g transform="translate(0 0)">
                                                            <path class="typst-shape" fill="none" stroke="oklab(79.331% 0.02072 -0.06779)" stroke-width="0.7" stroke-linecap="butt" stroke-linejoin="miter" stroke-miterlimit="4" d="M 48.418568 56.693 C 48.418568 56.693 50.076073 51.53909 50.076073 51.53909 C 50.076073 51.53909 49.97712 46.38518 49.97712 46.38518 C 49.97712 46.38518 48.2436 41.231274 48.2436 41.231274 C 48.2436 41.231274 46.38518 38.927288 46.38518 38.927288 C 46.38518 38.927288 43.048214 36.077362 43.048214 36.077362 C 43.048214 36.077362 41.231274 34.80159 41.231274 34.80159 C 41.231274 34.80159 36.077362 33.020115 36.077362 33.020115 C 36.077362 33.020115 30.923454 32.942272 30.923454 32.942272 C 30.923454 32.942272 25.769545 35.70255 25.769545 35.70255 C 25.769545 35.70255 25.427515 36.077362 25.427515 36.077362 C 25.427515 36.077362 22.879976 41.231274 22.879976 41.231274 C 22.879976 41.231274 22.658401 46.38518 22.658401 46.38518 C 22.658401 46.38518 24.037905 51.53909 24.037905 51.53909 C 24.037905 51.53909 25.769545 53.976635 25.769545 53.976635 C 25.769545 53.976635 28.124884 56.693 28.124884 56.693 "/>
                                                        </g>
                                                        <g transform="translate(0 0)">
                                                            <path class="typst-shape" fill="none" stroke="oklab(83.392% 0.01552 -0.05077)" stroke-width="0.7" stroke-linecap="butt" stroke-linejoin="miter" stroke-miterlimit="4" d="M 0 2.15499 C 0 2.15499 1.6341418 0 1.6341418 0 "/>
                                                        </g>
                                                        <g transform="translate(0 0)">
                                                            <path class="typst-shape" fill="none" stroke="oklab(83.392% 0.01552 -0.05077)" stroke-width="0.7" stroke-linecap="butt" stroke-linejoin="miter" stroke-miterlimit="4" d="M 42.820366 56.693 C 42.820366 56.693 46.38518 52.37497 46.38518 52.37497 C 46.38518 52.37497 46.77447 51.53909 46.77447 51.53909 C 46.77447 51.53909 46.764034 46.38518 46.764034 46.38518 C 46.764034 46.38518 46.38518 45.5493 46.38518 45.5493 C 46.38518 45.5493 44.38721 41.231274 44.38721 41.231274 C 44.38721 41.231274 41.231274 38.31242 41.231274 38.31242 C 41.231274 38.31242 36.077362 36.37689 36.077362 36.37689 C 36.077362 36.37689 30.923454 36.698868 30.923454 36.698868 C 30.923454 36.698868 26.534613 41.231274 26.534613 41.231274 C 26.534613 41.231274 25.996923 46.38518 25.996923 46.38518 C 25.996923 46.38518 27.647507 51.53909 27.647507 51.53909 C 27.647507 51.53909 30.923454 55.061676 30.923454 55.061676 C 30.923454 55.061676 34.217297 56.693 34.217297 56.693 "/>
                                                        </g>
                                                        <g transform="translate(0 0)">
                                                            <path class="typst-shape" fill="none" stroke="oklab(87.452% 0.01033 -0.03375)" stroke-width="0.7" stroke-linecap="butt" stroke-linejoin="miter" stroke-miterlimit="4" d="M 30.923454 51.84508 C 30.923454 51.84508 36.077362 54.811623 36.077362 54.811623 C 36.077362 54.811623 41.231274 54.243546 41.231274 54.243546 C 41.231274 54.243546 43.68939 51.53909 43.68939 51.53909 C 43.68939 51.53909 44.117508 46.38518 44.117508 46.38518 C 44.117508 46.38518 41.231274 41.39949 41.231274 41.39949 C 41.231274 41.39949 41.023815 41.231274 41.023815 41.231274 C 41.023815 41.231274 36.077362 38.92758 36.077362 38.92758 C 36.077362 38.92758 30.923454 40.023613 30.923454 40.023613 C 30.923454 40.023613 29.754047 41.231274 29.754047 41.231274 C 29.754047 41.231274 28.519173 46.38518 28.519173 46.38518 C 28.519173 46.38518 30.638887 51.53909 30.638887 51.53909 C 30.638887 51.53909 30.923454 51.84508 30.923454 51.84508 "/>
                                                        </g>
                                                        <g transform="translate(0 0)">
                                                            <path class="typst-shape" fill="none" stroke="oklab(91.513% 0.00513 -0.01673)" stroke-width="0.7" stroke-linecap="butt" stroke-linejoin="miter" stroke-miterlimit="4" d="M 36.077362 52.175167 C 36.077362 52.175167 38.923138 51.53909 38.923138 51.53909 C 38.923138 51.53909 41.231274 48.371445 41.231274 48.371445 C 41.231274 48.371445 41.54671 46.38518 41.54671 46.38518 C 41.54671 46.38518 41.231274 45.84029 41.231274 45.84029 C 41.231274 45.84029 36.077362 41.692482 36.077362 41.692482 C 36.077362 41.692482 31.15702 46.38518 31.15702 46.38518 C 31.15702 46.38518 34.992466 51.53909 34.992466 51.53909 C 34.992466 51.53909 36.077362 52.175167 36.077362 52.175167 "/>
                                                        </g>
                                                    </g>
                                                </g>
                                            </g>
                                        </g>
                                    </g>
                                </g>
                                <g transform="translate(0 56.693)">
                                    <path class="typst-shape" fill="none" stroke="#ffffff00" stroke-width="0.7" stroke-linecap="square" stroke-linejoin="miter" stroke-miterlimit="4" d="M 0 0 L 56.693 0 "/>
                                </g>
                                <g transform="translate(0 0)">
                                    <path class="typst-shape" fill="none" stroke="#ffffff00" stroke-width="0.7" stroke-linecap="square" stroke-linejoin="miter" stroke-miterlimit="4" d="M 0 0 L 56.693 0 "/>
                                </g>
                                <g transform="translate(0 0)">
                                    <path class="typst-shape" fill="none" stroke="#ffffff00" stroke-width="0.7" stroke-linecap="square" stroke-linejoin="miter" stroke-miterlimit="4" d="M 0 0 L 0.000000000000003471445 56.693 "/>
                                </g>
                                <g transform="translate(56.693 0)">
                                    <path class="typst-shape" fill="none" stroke="#ffffff00" stroke-width="0.7" stroke-linecap="square" stroke-linejoin="miter" stroke-miterlimit="4" d="M 0 0 L 0.000000000000003471445 56.693 "/>
                                </g>
                            </g>
                        </g>
                    </g>
                </g>
            </g>
        </g>
    </g>
    <defs id="clip-path">
        <clipPath id="cB30548BA82FF66651B8AE39B07293B8C">
            <path d="M 0 0 L 56.693 0 L 56.693 56.693 L 0 56.693 Z "/>
        </clipPath>
    </defs>
</svg>
