<svg class="typst-doc" viewBox="0 0 56.693 56.693" width="56.693pt" height="56.693pt" xmlns="http://www.w3.org/2000/svg" xmlns:xlink="http://www.w3.org/1999/xlink" xmlns:h5="http://www.w3.org/1999/xhtml">
    <g>
        <g transform="translate(0 0)">
            <g class="typst-group">
                <g>
                    <g transform="translate(0 0)">
                        <g class="typst-group">
                            <g>
                                <g transform="translate(0 0)">
                                    <g class="typst-group">
                                        <g>
                                            <g transform="translate(0 0)">
                                                <g class="typst-group" clip-path="url(#cE61F647FB77BFC5E6A79A74A664E3231)">
                                                    <g>
                                                        <g transform="translate(0 0)">
                                                            <path class="typst-shape" fill="none" stroke="oklab(55.826% 0.05080 -0.16631)" stroke-width="0.7" stroke-linecap="butt" stroke-linejoin="miter" stroke-miterlimit="4" d="M 7.8740277 35.190845 C 7.8740277 35.190845 27.559097 42.762028 27.559097 42.762028 C 27.559097 42.762028 47.244167 20.048487 47.244167 20.048487 "/>
                                                        </g>
                                                        <g transform="translate(7.874027777777778 26.10543055555556)">
                                                            <path class="typst-shape" fill="none" stroke="oklab(55.826% 0.05080 -0.16631)" stroke-width="1" stroke-linecap="butt" stroke-linejoin="miter" stroke-miterlimit="4" d="M 0 0 L 0 18.170834 "/>
                                                        </g>
                                                        <g transform="translate(5.874027777777778 33.190847222222224)">
                                                            <path class="typst-shape" fill="oklab(55.826% 0.05080 -0.16631)" d="M 0 2 C 0 0.896432 0.896432 0 2 0 C 3.103568 0 4 0.896432 4 2 C 4 3.103568 3.103568 4 2 4 C 0.896432 4 0 3.103568 0 2 "/>
                                                        </g>
                                                        <g transform="translate(27.55909722222222 36.70508333333334)">
                                                            <path class="typst-shape" fill="none" stroke="oklab(55.826% 0.05080 -0.16631)" stroke-width="1" stroke-linecap="butt" stroke-linejoin="miter" stroke-miterlimit="4" d="M 0 0 L 0 12.113889 "/>
                                                        </g>
                                                        <g transform="translate(25.55909722222222 40.762027777777774)">
                                                            <path class="typst-shape" fill="oklab(55.826% 0.05080 -0.16631)" d="M 0 2 C 0 0.896432 0.896432 0 2 0 C 3.103568 0 4 0.896432 4 2 C 4 3.103568 3.103568 4 2 4 C 0.896432 4 0 3.103568 0 2 "/>
                                                        </g>
                                                        <g transform="translate(47.24416666666666 9.448833333333337)">
                                                            <path class="typst-shape" fill="none" stroke="oklab(55.826% 0.05080 -0.16631)" stroke-width="1" stroke-linecap="butt" stroke-linejoin="miter" stroke-miterlimit="4" d="M 0 0 L 0 21.199306 "/>
                                                        </g>
                                                        <g transform="translate(45.24416666666666 18.048486111111114)">
                                                            <path class="typst-shape" fill="oklab(55.826% 0.05080 -0.16631)" d="M 0 2 C 0 0.896432 0.896432 0 2 0 C 3.103568 0 4 0.896432 4 2 C 4 3.103568 3.103568 4 2 4 C 0.896432 4 0 3.103568 0 2 "/>
                                                        </g>
                                                    </g>
                                                </g>
                                            </g>
                                        </g>
                                    </g>
                                </g>
                                <g transform="translate(0 56.693)">
                                    <path class="typst-shape" fill="none" stroke="#ffffff00" stroke-width="0.7" stroke-linecap="square" stroke-linejoin="miter" stroke-miterlimit="4" d="M 0 0 L 56.693 0 "/>
                                </g>
                                <g transform="translate(0 0)">
                                    <path class="typst-shape" fill="none" stroke="#ffffff00" stroke-width="0.7" stroke-linecap="square" stroke-linejoin="miter" stroke-miterlimit="4" d="M 0 0 L 56.693 0 "/>
                                </g>
                                <g transform="translate(0 0)">
                                    <path class="typst-shape" fill="none" stroke="#ffffff00" stroke-width="0.7" stroke-linecap="square" stroke-linejoin="miter" stroke-miterlimit="4" d="M 0 0 L 0.000000000000003471445 56.693 "/>
                                </g>
                                <g transform="translate(56.693 0)">
                                    <path class="typst-shape" fill="none" stroke="#ffffff00" stroke-width="0.7" stroke-linecap="square" stroke-linejoin="miter" stroke-miterlimit="4" d="M 0 0 L 0.000000000000003471445 56.693 "/>
                                </g>
                            </g>
                        </g>
                    </g>
                </g>
            </g>
        </g>
    </g>
    <defs id="clip-path">
        <clipPath id="cE61F647FB77BFC5E6A79A74A664E3231">
            <path d="M 0 0 L 56.693 0 L 56.693 56.693 L 0 56.693 Z "/>
        </clipPath>
    </defs>
</svg>
