<svg class="typst-doc" viewBox="0 0 56.693 56.693" width="56.693pt" height="56.693pt" xmlns="http://www.w3.org/2000/svg" xmlns:xlink="http://www.w3.org/1999/xlink" xmlns:h5="http://www.w3.org/1999/xhtml">
    <g>
        <g transform="translate(0 0)">
            <g class="typst-group">
                <g>
                    <g transform="translate(0 0)">
                        <g class="typst-group">
                            <g>
                                <g transform="translate(0 0)">
                                    <g class="typst-group">
                                        <g>
                                            <g transform="translate(0 0)">
                                                <g class="typst-group" clip-path="url(#cC01F4796A96D345165BCAAFD1F7669F0)">
                                                    <g>
                                                        <g transform="translate(0 0)">
                                                            <path class="typst-shape" fill="oklab(73.495% 0.05080 -0.16631)" stroke="oklab(55.826% 0.05080 -0.16631)" stroke-width="0.7" stroke-linecap="butt" stroke-linejoin="miter" stroke-miterlimit="4" d="M 2.5711112 28.540077 C 2.5711112 28.540077 4.7137036 25.31843 4.7137036 25.31843 C 4.7137036 25.31843 6.856296 22.147057 6.856296 22.147057 C 6.856296 22.147057 8.998889 19.075445 8.998889 19.075445 C 8.998889 19.075445 11.141481 16.151524 11.141481 16.151524 C 11.141481 16.151524 13.284074 13.420923 13.284074 13.420923 C 13.284074 13.420923 15.426666 10.926251 15.426666 10.926251 C 15.426666 10.926251 17.56926 8.706438 17.56926 8.706438 C 17.56926 8.706438 19.711851 6.7961216 19.711851 6.7961216 C 19.711851 6.7961216 21.854445 5.225112 21.854445 5.225112 C 21.854445 5.225112 23.997038 4.0179253 23.997038 4.0179253 C 23.997038 4.0179253 26.13963 3.193398 26.13963 3.193398 C 26.13963 3.193398 28.282223 2.7643971 28.282223 2.7643971 C 28.282223 2.7643971 30.424814 2.7376175 30.424814 2.7376175 C 30.424814 2.7376175 32.567406 3.1134763 32.567406 3.1134763 C 32.567406 3.1134763 34.71 3.8861089 34.71 3.8861089 C 34.71 3.8861089 36.852592 5.0434585 36.852592 5.0434585 C 36.852592 5.0434585 38.995186 6.567465 38.995186 6.567465 C 38.995186 6.567465 41.13778 8.434346 41.13778 8.434346 C 41.13778 8.434346 43.28037 10.614971 43.28037 10.614971 C 43.28037 10.614971 45.422962 13.075311 45.422962 13.075311 C 45.422962 13.075311 47.565556 15.776974 47.565556 15.776974 C 47.565556 15.776974 49.70815 18.677801 49.70815 18.677801 C 49.70815 18.677801 51.850742 21.732525 51.850742 21.732525 C 51.850742 21.732525 53.993332 24.893478 53.993332 24.893478 C 53.993332 24.893478 53.993332 54.121887 53.993332 54.121887 C 53.993332 54.121887 51.850742 53.46765 51.850742 53.46765 C 51.850742 53.46765 49.70815 52.42443 49.70815 52.42443 C 49.70815 52.42443 47.565556 51.0085 47.565556 51.0085 C 47.565556 51.0085 45.422962 49.241955 45.422962 49.241955 C 45.422962 49.241955 43.28037 47.152367 43.28037 47.152367 C 43.28037 47.152367 41.13778 44.772343 41.13778 44.772343 C 41.13778 44.772343 38.995186 42.139015 38.995186 42.139015 C 38.995186 42.139015 36.852592 39.29348 36.852592 39.29348 C 36.852592 39.29348 34.71 36.280144 34.71 36.280144 C 34.71 36.280144 32.567406 33.146027 32.567406 33.146027 C 32.567406 33.146027 30.424814 29.940037 30.424814 29.940037 C 30.424814 29.940037 28.282223 26.712198 28.282223 26.712198 C 28.282223 26.712198 26.13963 23.512884 26.13963 23.512884 C 26.13963 23.512884 23.997038 20.392017 23.997038 20.392017 C 23.997038 20.392017 21.854445 17.398298 21.854445 17.398298 C 21.854445 17.398298 19.711851 14.578444 19.711851 14.578444 C 19.711851 14.578444 17.56926 11.976455 17.56926 11.976455 C 17.56926 11.976455 15.426666 9.6329365 15.426666 9.6329365 C 15.426666 9.6329365 13.284074 7.5844574 13.284074 7.5844574 C 13.284074 7.5844574 11.141481 5.8629837 11.141481 5.8629837 C 11.141481 5.8629837 8.998889 4.495378 8.998889 4.495378 C 8.998889 4.495378 6.856296 3.5029824 6.856296 3.5029824 C 6.856296 3.5029824 4.7137036 2.901282 4.7137036 2.901282 C 4.7137036 2.901282 2.5711112 2.6996667 2.5711112 2.6996667 C 2.5711112 2.6996667 2.5711112 28.540077 2.5711112 28.540077 Z "/>
                                                        </g>
                                                    </g>
                                                </g>
                                            </g>
                                        </g>
                                    </g>
                                </g>
                                <g transform="translate(0 56.693)">
                                    <path class="typst-shape" fill="none" stroke="#ffffff00" stroke-width="0.7" stroke-linecap="square" stroke-linejoin="miter" stroke-miterlimit="4" d="M 0 0 L 56.693 0 "/>
                                </g>
                                <g transform="translate(0 0)">
                                    <path class="typst-shape" fill="none" stroke="#ffffff00" stroke-width="0.7" stroke-linecap="square" stroke-linejoin="miter" stroke-miterlimit="4" d="M 0 0 L 56.693 0 "/>
                                </g>
                                <g transform="translate(0 0)">
                                    <path class="typst-shape" fill="none" stroke="#ffffff00" stroke-width="0.7" stroke-linecap="square" stroke-linejoin="miter" stroke-miterlimit="4" d="M 0 0 L 0.000000000000003471445 56.693 "/>
                                </g>
                                <g transform="translate(56.693 0)">
                                    <path class="typst-shape" fill="none" stroke="#ffffff00" stroke-width="0.7" stroke-linecap="square" stroke-linejoin="miter" stroke-miterlimit="4" d="M 0 0 L 0.000000000000003471445 56.693 "/>
                                </g>
                            </g>
                        </g>
                    </g>
                </g>
            </g>
        </g>
    </g>
    <defs id="clip-path">
        <clipPath id="cC01F4796A96D345165BCAAFD1F7669F0">
            <path d="M 0 0 L 56.693 0 L 56.693 56.693 L 0 56.693 Z "/>
        </clipPath>
    </defs>
</svg>
