<svg class="typst-doc" viewBox="0 0 56.693 56.693" width="56.693pt" height="56.693pt" xmlns="http://www.w3.org/2000/svg" xmlns:xlink="http://www.w3.org/1999/xlink" xmlns:h5="http://www.w3.org/1999/xhtml">
    <g>
        <g transform="translate(0 0)">
            <g class="typst-group">
                <g>
                    <g transform="translate(0 0)">
                        <g class="typst-group">
                            <g>
                                <g transform="translate(0 0)">
                                    <g class="typst-group">
                                        <g>
                                            <g transform="translate(0 0)">
                                                <g class="typst-group" clip-path="url(#c556B8FDD7297C93F6E23DAFEAADC1E0B)">
                                                    <g>
                                                        <g transform="translate(0 0)">
                                                            <path class="typst-shape" fill="oklab(59.027% 0.04670 -0.15289)" d="M 56.693 0 C 56.693 0 56.693 56.693 56.693 56.693 C 56.693 56.693 0 56.693 0 56.693 C 0 56.693 0 0 0 0 C 0 0 56.693 0 56.693 0 C 56.693 0 56.693 0 56.693 0 Z "/>
                                                        </g>
                                                        <g transform="translate(0 0)">
                                                            <path class="typst-shape" fill="oklab(63.088% 0.04151 -0.13587)" d="M 56.693 0 C 56.693 0 56.693 56.693 56.693 56.693 C 56.693 56.693 0 56.693 0 56.693 C 0 56.693 0 0 0 0 C 0 0 56.693 0 56.693 0 C 56.693 0 14.17325 42.51975 14.17325 42.51975 C 14.17325 42.51975 43.491707 0 43.491707 0 C 43.491707 0 28.54203 0 28.54203 0 C 28.54203 0 29.451168 5.153909 29.451168 5.153909 C 29.451168 5.153909 30.923454 7.078494 30.923454 7.078494 C 30.923454 7.078494 35.86642 10.307818 35.86642 10.307818 C 35.86642 10.307818 36.077362 10.412123 36.077362 10.412123 C 36.077362 10.412123 37.497875 10.307818 37.497875 10.307818 C 37.497875 10.307818 41.231274 9.865829 41.231274 9.865829 C 41.231274 9.865829 44.245407 5.153909 44.245407 5.153909 C 44.245407 5.153909 43.491707 0 43.491707 0 C 43.491707 0 14.17325 42.51975 14.17325 42.51975 C 14.17325 42.51975 56.693 0 56.693 0 Z "/>
                                                        </g>
                                                        <g transform="translate(0 0)">
                                                            <path class="typst-shape" fill="oklab(67.149% 0.03631 -0.11885)" d="M 56.693 0 C 56.693 0 56.693 56.693 56.693 56.693 C 56.693 56.693 0 56.693 0 56.693 C 0 56.693 0 0 0 0 C 0 0 56.693 0 56.693 0 C 56.693 0 14.17325 42.51975 14.17325 42.51975 C 14.17325 42.51975 0 32.75989 0 32.75989 C 0 32.75989 0 46.823364 0 46.823364 C 0 46.823364 0.41197604 46.38518 0.41197604 46.38518 C 0.41197604 46.38518 2.54075 41.231274 2.54075 41.231274 C 2.54075 41.231274 1.9948716 36.077362 1.9948716 36.077362 C 1.9948716 36.077362 0 32.75989 0 32.75989 C 0 32.75989 14.17325 42.51975 14.17325 42.51975 C 14.17325 42.51975 46.16418 0 46.16418 0 C 46.16418 0 25.919296 0 25.919296 0 C 25.919296 0 26.770891 5.153909 26.770891 5.153909 C 26.770891 5.153909 30.592617 10.307818 30.592617 10.307818 C 30.592617 10.307818 30.923454 10.587651 30.923454 10.587651 C 30.923454 10.587651 36.077362 13.063929 36.077362 13.063929 C 36.077362 13.063929 41.231274 13.037555 41.231274 13.037555 C 41.231274 13.037555 45.11769 10.307818 45.11769 10.307818 C 45.11769 10.307818 46.38518 7.352974 46.38518 7.352974 C 46.38518 7.352974 47.064495 5.153909 47.064495 5.153909 C 47.064495 5.153909 46.38518 1.4191717 46.38518 1.4191717 C 46.38518 1.4191717 46.16418 0 46.16418 0 C 46.16418 0 14.17325 42.51975 14.17325 42.51975 C 14.17325 42.51975 56.693 0 56.693 0 Z "/>
                                                        </g>
                                                        <g transform="translate(0 0)">
                                                            <path class="typst-shape" fill="oklab(71.209% 0.03111 -0.10183)" d="M 56.693 0 C 56.693 0 56.693 56.693 56.693 56.693 C 56.693 56.693 0 56.693 0 56.693 C 0 56.693 0 0 0 0 C 0 0 56.693 0 56.693 0 C 56.693 0 14.17325 42.51975 14.17325 42.51975 C 14.17325 42.51975 0 28.058702 0 28.058702 C 0 28.058702 0 51.09747 0 51.09747 C 0 51.09747 4.4304557 46.38518 4.4304557 46.38518 C 4.4304557 46.38518 5.153909 42.303593 5.153909 42.303593 C 5.153909 42.303593 5.4105697 41.231274 5.4105697 41.231274 C 5.4105697 41.231274 5.153909 39.671673 5.153909 39.671673 C 5.153909 39.671673 4.8434052 36.077362 4.8434052 36.077362 C 4.8434052 36.077362 2.7878718 30.923454 2.7878718 30.923454 C 2.7878718 30.923454 0 28.058702 0 28.058702 C 0 28.058702 14.17325 42.51975 14.17325 42.51975 C 14.17325 42.51975 49.60929 0 49.60929 0 C 49.60929 0 22.575258 0 22.575258 0 C 22.575258 0 23.289593 5.153909 23.289593 5.153909 C 23.289593 5.153909 25.769545 9.357834 25.769545 9.357834 C 25.769545 9.357834 26.367603 10.307818 26.367603 10.307818 C 26.367603 10.307818 30.923454 14.161289 30.923454 14.161289 C 30.923454 14.161289 35.003418 15.461727 35.003418 15.461727 C 35.003418 15.461727 36.077362 15.962319 36.077362 15.962319 C 36.077362 15.962319 41.231274 16.48582 41.231274 16.48582 C 41.231274 16.48582 43.862846 15.461727 43.862846 15.461727 C 43.862846 15.461727 46.38518 14.346959 46.38518 14.346959 C 46.38518 14.346959 49.342007 10.307818 49.342007 10.307818 C 49.342007 10.307818 50.185974 5.153909 50.185974 5.153909 C 50.185974 5.153909 49.60929 0 49.60929 0 C 49.60929 0 14.17325 42.51975 14.17325 42.51975 C 14.17325 42.51975 56.693 0 56.693 0 Z "/>
                                                        </g>
                                                        <g transform="translate(0 0)">
                                                            <path class="typst-shape" fill="oklab(75.270% 0.02592 -0.08481)" d="M 56.693 0 C 56.693 0 56.693 56.693 56.693 56.693 C 56.693 56.693 0 56.693 0 56.693 C 0 56.693 0 0 0 0 C 0 0 56.693 0 56.693 0 C 56.693 0 14.17325 42.51975 14.17325 42.51975 C 14.17325 42.51975 0 16.441904 0 16.441904 C 0 16.441904 0 56.693 0 56.693 C 0 56.693 15.195048 56.693 15.195048 56.693 C 15.195048 56.693 15.238521 51.53909 15.238521 51.53909 C 15.238521 51.53909 15.259353 46.38518 15.259353 46.38518 C 15.259353 46.38518 15.274573 41.231274 15.274573 41.231274 C 15.274573 41.231274 15.289464 36.077362 15.289464 36.077362 C 15.289464 36.077362 15.308817 30.923454 15.308817 30.923454 C 15.308817 30.923454 15.3456 25.769545 15.3456 25.769545 C 15.3456 25.769545 15.461585 20.615637 15.461585 20.615637 C 15.461585 20.615637 10.307818 20.498964 10.307818 20.498964 C 10.307818 20.498964 5.153909 19.190174 5.153909 19.190174 C 5.153909 19.190174 0 16.441904 0 16.441904 C 0 16.441904 14.17325 42.51975 14.17325 42.51975 C 14.17325 42.51975 56.693 29.497993 56.693 29.497993 C 56.693 29.497993 56.693 0 56.693 0 C 56.693 0 15.26514 0 15.26514 0 C 15.26514 0 15.24723 5.153909 15.24723 5.153909 C 15.24723 5.153909 15.216048 10.307818 15.216048 10.307818 C 15.216048 10.307818 15.105924 15.461727 15.105924 15.461727 C 15.105924 15.461727 15.461727 20.615591 15.461727 20.615591 C 15.461727 20.615591 15.461786 20.615637 15.461786 20.615637 C 15.461786 20.615637 20.615637 20.672243 20.615637 20.672243 C 20.615637 20.672243 25.769545 21.595814 25.769545 21.595814 C 25.769545 21.595814 30.923454 24.344084 30.923454 24.344084 C 30.923454 24.344084 36.077362 25.652874 36.077362 25.652874 C 36.077362 25.652874 41.231274 25.7695 41.231274 25.7695 C 41.231274 25.7695 41.243923 25.769545 41.243923 25.769545 C 41.243923 25.769545 46.38518 25.826153 46.38518 25.826153 C 46.38518 25.826153 51.53909 26.749722 51.53909 26.749722 C 51.53909 26.749722 56.693 29.497993 56.693 29.497993 C 56.693 29.497993 14.17325 42.51975 14.17325 42.51975 C 14.17325 42.51975 56.693 0 56.693 0 Z "/>
                                                        </g>
                                                        <g transform="translate(0 0)">
                                                            <path class="typst-shape" fill="oklab(79.331% 0.02072 -0.06779)" d="M 0 6.8062596 C 0 6.8062596 0 0 0 0 C 0 0 4.955584 0 4.955584 0 C 4.955584 0 2.1251328 5.153909 2.1251328 5.153909 C 2.1251328 5.153909 0 6.8062596 0 6.8062596 C 0 6.8062596 14.17325 42.51975 14.17325 42.51975 C 14.17325 42.51975 48.418568 56.693 48.418568 56.693 C 48.418568 56.693 28.124884 56.693 28.124884 56.693 C 28.124884 56.693 25.769545 53.976635 25.769545 53.976635 C 25.769545 53.976635 24.037905 51.53909 24.037905 51.53909 C 24.037905 51.53909 22.658401 46.38518 22.658401 46.38518 C 22.658401 46.38518 22.879976 41.231274 22.879976 41.231274 C 22.879976 41.231274 25.427515 36.077362 25.427515 36.077362 C 25.427515 36.077362 25.769545 35.70255 25.769545 35.70255 C 25.769545 35.70255 30.923454 32.942272 30.923454 32.942272 C 30.923454 32.942272 36.077362 33.020115 36.077362 33.020115 C 36.077362 33.020115 41.231274 34.80159 41.231274 34.80159 C 41.231274 34.80159 43.048214 36.077362 43.048214 36.077362 C 43.048214 36.077362 46.38518 38.927288 46.38518 38.927288 C 46.38518 38.927288 48.2436 41.231274 48.2436 41.231274 C 48.2436 41.231274 49.97712 46.38518 49.97712 46.38518 C 49.97712 46.38518 50.076073 51.53909 50.076073 51.53909 C 50.076073 51.53909 48.418568 56.693 48.418568 56.693 C 48.418568 56.693 14.17325 42.51975 14.17325 42.51975 C 14.17325 42.51975 0 6.8062596 0 6.8062596 Z "/>
                                                        </g>
                                                        <g transform="translate(0 0)">
                                                            <path class="typst-shape" fill="oklab(83.392% 0.01552 -0.05077)" d="M 0 2.15499 C 0 2.15499 0 0 0 0 C 0 0 1.6341418 0 1.6341418 0 C 1.6341418 0 0 2.15499 0 2.15499 C 0 2.15499 14.17325 42.51975 14.17325 42.51975 C 14.17325 42.51975 42.820366 56.693 42.820366 56.693 C 42.820366 56.693 34.217297 56.693 34.217297 56.693 C 34.217297 56.693 30.923454 55.061676 30.923454 55.061676 C 30.923454 55.061676 27.647507 51.53909 27.647507 51.53909 C 27.647507 51.53909 25.996923 46.38518 25.996923 46.38518 C 25.996923 46.38518 26.534613 41.231274 26.534613 41.231274 C 26.534613 41.231274 30.923454 36.698868 30.923454 36.698868 C 30.923454 36.698868 36.077362 36.37689 36.077362 36.37689 C 36.077362 36.37689 41.231274 38.31242 41.231274 38.31242 C 41.231274 38.31242 44.38721 41.231274 44.38721 41.231274 C 44.38721 41.231274 46.38518 45.5493 46.38518 45.5493 C 46.38518 45.5493 46.764034 46.38518 46.764034 46.38518 C 46.764034 46.38518 46.77447 51.53909 46.77447 51.53909 C 46.77447 51.53909 46.38518 52.37497 46.38518 52.37497 C 46.38518 52.37497 42.820366 56.693 42.820366 56.693 C 42.820366 56.693 14.17325 42.51975 14.17325 42.51975 C 14.17325 42.51975 0 2.15499 0 2.15499 Z "/>
                                                        </g>
                                                        <g transform="translate(0 0)">
                                                            <path class="typst-shape" fill="oklab(87.452% 0.01033 -0.03375)" d="M 30.923454 51.84508 C 30.923454 51.84508 30.638887 51.53909 30.638887 51.53909 C 30.638887 51.53909 28.519173 46.38518 28.519173 46.38518 C 28.519173 46.38518 29.754047 41.231274 29.754047 41.231274 C 29.754047 41.231274 30.923454 40.023613 30.923454 40.023613 C 30.923454 40.023613 36.077362 38.92758 36.077362 38.92758 C 36.077362 38.92758 41.023815 41.231274 41.023815 41.231274 C 41.023815 41.231274 41.231274 41.39949 41.231274 41.39949 C 41.231274 41.39949 44.117508 46.38518 44.117508 46.38518 C 44.117508 46.38518 43.68939 51.53909 43.68939 51.53909 C 43.68939 51.53909 41.231274 54.243546 41.231274 54.243546 C 41.231274 54.243546 36.077362 54.811623 36.077362 54.811623 C 36.077362 54.811623 30.923454 51.84508 30.923454 51.84508 C 30.923454 51.84508 14.17325 42.51975 14.17325 42.51975 C 14.17325 42.51975 30.923454 51.84508 30.923454 51.84508 Z "/>
                                                        </g>
                                                        <g transform="translate(0 0)">
                                                            <path class="typst-shape" fill="oklab(91.513% 0.00513 -0.01673)" d="M 36.077362 52.175167 C 36.077362 52.175167 34.992466 51.53909 34.992466 51.53909 C 34.992466 51.53909 31.15702 46.38518 31.15702 46.38518 C 31.15702 46.38518 36.077362 41.692482 36.077362 41.692482 C 36.077362 41.692482 41.231274 45.84029 41.231274 45.84029 C 41.231274 45.84029 41.54671 46.38518 41.54671 46.38518 C 41.54671 46.38518 41.231274 48.371445 41.231274 48.371445 C 41.231274 48.371445 38.923138 51.53909 38.923138 51.53909 C 38.923138 51.53909 36.077362 52.175167 36.077362 52.175167 C 36.077362 52.175167 14.17325 42.51975 14.17325 42.51975 C 14.17325 42.51975 36.077362 52.175167 36.077362 52.175167 Z "/>
                                                        </g>
                                                    </g>
                                                </g>
                                            </g>
                                        </g>
                                    </g>
                                </g>
                                <g transform="translate(0 56.693)">
                                    <path class="typst-shape" fill="none" stroke="#ffffff00" stroke-width="0.7" stroke-linecap="square" stroke-linejoin="miter" stroke-miterlimit="4" d="M 0 0 L 56.693 0 "/>
                                </g>
                                <g transform="translate(0 0)">
                                    <path class="typst-shape" fill="none" stroke="#ffffff00" stroke-width="0.7" stroke-linecap="square" stroke-linejoin="miter" stroke-miterlimit="4" d="M 0 0 L 56.693 0 "/>
                                </g>
                                <g transform="translate(0 0)">
                                    <path class="typst-shape" fill="none" stroke="#ffffff00" stroke-width="0.7" stroke-linecap="square" stroke-linejoin="miter" stroke-miterlimit="4" d="M 0 0 L 0.000000000000003471445 56.693 "/>
                                </g>
                                <g transform="translate(56.693 0)">
                                    <path class="typst-shape" fill="none" stroke="#ffffff00" stroke-width="0.7" stroke-linecap="square" stroke-linejoin="miter" stroke-miterlimit="4" d="M 0 0 L 0.000000000000003471445 56.693 "/>
                                </g>
                            </g>
                        </g>
                    </g>
                </g>
            </g>
        </g>
    </g>
    <defs id="clip-path">
        <clipPath id="c556B8FDD7297C93F6E23DAFEAADC1E0B">
            <path d="M 0 0 L 56.693 0 L 56.693 56.693 L 0 56.693 Z "/>
        </clipPath>
    </defs>
</svg>
