<svg class="typst-doc" viewBox="0 0 113.38582677165354 113.38582677165354" width="113.38582677165354pt" height="113.38582677165354pt" xmlns="http://www.w3.org/2000/svg" xmlns:xlink="http://www.w3.org/1999/xlink" xmlns:h5="http://www.w3.org/1999/xhtml">
    <path class="typst-shape" fill="#ffffff00" fill-rule="nonzero" d="M 0 0 L 0 113.385826 L 113.385826 113.385826 L 113.385826 0 Z "/>
    <g>
        <g transform="translate(0 0)">
            <g class="typst-group">
                <g>
                    <g transform="translate(0 0)">
                        <g class="typst-group">
                            <g>
                                <g transform="translate(-0 -0)">
                                    <path class="typst-shape" fill="none" stroke="#000000" stroke-width="0" stroke-linecap="butt" stroke-linejoin="miter" stroke-miterlimit="4" d="M 0 0 L 0 113.385826 L 113.385826 113.385826 L 113.385826 0 Z "/>
                                </g>
                                <g transform="translate(0 0)">
                                    <g class="typst-group" clip-path="url(#cB331897C6F303DB0F6A77D4107C162C0)">
                                        <g>
                                            <g transform="translate(0 90.70866141732283)">
                                                <path class="typst-shape" fill="oklab(90.952% 0.01059 -0.03794)" fill-rule="nonzero" d="M 0 0 L 0 22.677166 L 22.677166 22.677166 L 22.677166 0 Z "/>
                                            </g>
                                            <g transform="translate(0 68.03149606299213)">
                                                <path class="typst-shape" fill="oklab(80.253% 0.01882 -0.05739)" fill-rule="nonzero" d="M 0 0 L 0 22.677166 L 22.677166 22.677166 L 22.677166 0 Z "/>
                                            </g>
                                            <g transform="translate(0 45.354330708661415)">
                                                <path class="typst-shape" fill="oklab(46.283% 0.13662 -0.02488)" fill-rule="nonzero" d="M 0 0 L 0 22.677166 L 22.677166 22.677166 L 22.677166 0 Z "/>
                                            </g>
                                            <g transform="translate(0 22.677165354330704)">
                                                <path class="typst-shape" fill="oklab(44.299% 0.14720 0.00163)" fill-rule="nonzero" d="M 0 0 L 0 22.677166 L 22.677166 22.677166 L 22.677166 0 Z "/>
                                            </g>
                                            <g transform="translate(-0 -0)">
                                                <path class="typst-shape" fill="oklab(66.913% 0.08132 -0.02524)" fill-rule="nonzero" d="M 0 0 L 0 22.677166 L 22.677166 22.677166 L 22.677166 0 Z "/>
                                            </g>
                                            <g transform="translate(22.677165354330707 90.70866141732283)">
                                                <path class="typst-shape" fill="oklab(80.566% 0.02269 -0.05904)" fill-rule="nonzero" d="M 0 0 L 0 22.677166 L 22.677166 22.677166 L 22.677166 0 Z "/>
                                            </g>
                                            <g transform="translate(22.677165354330707 68.03149606299213)">
                                                <path class="typst-shape" fill="oklab(58.735% 0.03661 -0.09454)" fill-rule="nonzero" d="M 0 0 L 0 22.677166 L 22.677166 22.677166 L 22.677166 0 Z "/>
                                            </g>
                                            <g transform="translate(22.677165354330707 45.354330708661415)">
                                                <path class="typst-shape" fill="oklab(37.711% 0.14425 -0.00104)" fill-rule="nonzero" d="M 0 0 L 0 22.677166 L 22.677166 22.677166 L 22.677166 0 Z "/>
                                            </g>
                                            <g transform="translate(22.677165354330707 22.677165354330704)">
                                                <path class="typst-shape" fill="oklab(41.418% 0.14245 -0.01907)" fill-rule="nonzero" d="M 0 0 L 0 22.677166 L 22.677166 22.677166 L 22.677166 0 Z "/>
                                            </g>
                                            <g transform="translate(22.677165354330707 0)">
                                                <path class="typst-shape" fill="oklab(58.661% 0.10479 -0.05335)" fill-rule="nonzero" d="M 0 0 L 0 22.677166 L 22.677166 22.677166 L 22.677166 0 Z "/>
                                            </g>
                                            <g transform="translate(45.354330708661415 90.70866141732283)">
                                                <path class="typst-shape" fill="oklab(47.375% 0.04682 -0.14896)" fill-rule="nonzero" d="M 0 0 L 0 22.677166 L 22.677166 22.677166 L 22.677166 0 Z "/>
                                            </g>
                                            <g transform="translate(45.354330708661415 68.03149606299213)">
                                                <path class="typst-shape" fill="oklab(39.011% 0.04672 -0.15514)" fill-rule="nonzero" d="M 0 0 L 0 22.677166 L 22.677166 22.677166 L 22.677166 0 Z "/>
                                            </g>
                                            <g transform="translate(45.354330708661415 45.354330708661415)">
                                                <path class="typst-shape" fill="oklab(39.238% 0.09818 -0.07799)" fill-rule="nonzero" d="M 0 0 L 0 22.677166 L 22.677166 22.677166 L 22.677166 0 Z "/>
                                            </g>
                                            <g transform="translate(45.354330708661415 22.677165354330704)">
                                                <path class="typst-shape" fill="oklab(38.270% 0.06475 -0.12925)" fill-rule="nonzero" d="M 0 0 L 0 22.677166 L 22.677166 22.677166 L 22.677166 0 Z "/>
                                            </g>
                                            <g transform="translate(45.354330708661415 0)">
                                                <path class="typst-shape" fill="oklab(58.454% 0.05325 -0.09516)" fill-rule="nonzero" d="M 0 0 L 0 22.677166 L 22.677166 22.677166 L 22.677166 0 Z "/>
                                            </g>
                                            <g transform="translate(68.03149606299213 90.70866141732283)">
                                                <path class="typst-shape" fill="oklab(49.113% 0.05175 -0.10911)" fill-rule="nonzero" d="M 0 0 L 0 22.677166 L 22.677166 22.677166 L 22.677166 0 Z "/>
                                            </g>
                                            <g transform="translate(68.03149606299213 68.03149606299213)">
                                                <path class="typst-shape" fill="oklab(47.841% 0.03733 -0.09736)" fill-rule="nonzero" d="M 0 0 L 0 22.677166 L 22.677166 22.677166 L 22.677166 0 Z "/>
                                            </g>
                                            <g transform="translate(68.03149606299213 45.354330708661415)">
                                                <path class="typst-shape" fill="oklab(33.845% 0.03736 -0.14768)" fill-rule="nonzero" d="M 0 0 L 0 22.677166 L 22.677166 22.677166 L 22.677166 0 Z "/>
                                            </g>
                                            <g transform="translate(68.03149606299213 22.677165354330704)">
                                                <path class="typst-shape" fill="oklab(32.974% 0.02513 -0.18110)" fill-rule="nonzero" d="M 0 0 L 0 22.677166 L 22.677166 22.677166 L 22.677166 0 Z "/>
                                            </g>
                                            <g transform="translate(68.03149606299213 0)">
                                                <path class="typst-shape" fill="oklab(57.452% 0.04285 -0.12669)" fill-rule="nonzero" d="M 0 0 L 0 22.677166 L 22.677166 22.677166 L 22.677166 0 Z "/>
                                            </g>
                                            <g transform="translate(90.70866141732283 90.70866141732283)">
                                                <path class="typst-shape" fill="oklab(51.984% 0.09856 -0.06794)" fill-rule="nonzero" d="M 0 0 L 0 22.677166 L 22.677166 22.677166 L 22.677166 0 Z "/>
                                            </g>
                                            <g transform="translate(90.70866141732283 68.03149606299213)">
                                                <path class="typst-shape" fill="oklab(55.118% 0.07445 -0.04494)" fill-rule="nonzero" d="M 0 0 L 0 22.677166 L 22.677166 22.677166 L 22.677166 0 Z "/>
                                            </g>
                                            <g transform="translate(90.70866141732283 45.354330708661415)">
                                                <path class="typst-shape" fill="oklab(48.696% 0.04537 -0.11308)" fill-rule="nonzero" d="M 0 0 L 0 22.677166 L 22.677166 22.677166 L 22.677166 0 Z "/>
                                            </g>
                                            <g transform="translate(90.70866141732283 22.677165354330704)">
                                                <path class="typst-shape" fill="oklab(37.296% 0.03862 -0.17952)" fill-rule="nonzero" d="M 0 0 L 0 22.677166 L 22.677166 22.677166 L 22.677166 0 Z "/>
                                            </g>
                                            <g transform="translate(90.70866141732283 0)">
                                                <path class="typst-shape" fill="oklab(53.880% 0.05039 -0.13920)" fill-rule="nonzero" d="M 0 0 L 0 22.677166 L 22.677166 22.677166 L 22.677166 0 Z "/>
                                            </g>
                                        </g>
                                    </g>
                                </g>
                                <g transform="translate(0 0)">
                                    <path class="typst-shape" fill="none" stroke="#000000" stroke-width="0" stroke-linecap="square" stroke-linejoin="miter" stroke-miterlimit="4" d="M 0 0 L 0.0000000000000069428796 113.385826 "/>
                                </g>
                                <g transform="translate(113.38582677165354 0)">
                                    <path class="typst-shape" fill="none" stroke="#000000" stroke-width="0" stroke-linecap="square" stroke-linejoin="miter" stroke-miterlimit="4" d="M 0 0 L 0.0000000000000069428796 113.385826 "/>
                                </g>
                            </g>
                        </g>
                    </g>
                </g>
            </g>
        </g>
    </g>
    <defs id="clip-path">
        <clipPath id="cB331897C6F303DB0F6A77D4107C162C0">
            <path d="M 0 0 L 113.385826 0 L 113.385826 113.385826 L 0 113.385826 Z "/>
        </clipPath>
    </defs>
</svg>
