<svg class="typst-doc" viewBox="0 0 56.693 56.693" width="56.693pt" height="56.693pt" xmlns="http://www.w3.org/2000/svg" xmlns:xlink="http://www.w3.org/1999/xlink" xmlns:h5="http://www.w3.org/1999/xhtml">
    <g>
        <g transform="translate(0 0)">
            <g class="typst-group">
                <g>
                    <g transform="translate(0 0)">
                        <g class="typst-group">
                            <g>
                                <g transform="translate(0 0)">
                                    <g class="typst-group">
                                        <g>
                                            <g transform="translate(0 0)">
                                                <g class="typst-group" clip-path="url(#c9E8699E63C4BCA3E580EF2F1F79238B)">
                                                    <g>
                                                        <g transform="translate(0 0)">
                                                            <path class="typst-shape" fill="none" stroke="oklab(55.826% 0.05080 -0.16631)" stroke-width="0.7" stroke-linecap="butt" stroke-linejoin="miter" stroke-miterlimit="4" d="M 2.5711112 54.121887 C 2.5711112 54.121887 9.917143 52.817986 9.917143 52.817986 C 9.917143 52.817986 17.263174 50.827812 17.263174 50.827812 C 17.263174 50.827812 24.609207 48.151375 24.609207 48.151375 C 24.609207 48.151375 31.955238 44.788673 31.955238 44.788673 C 31.955238 44.788673 39.30127 40.739704 39.30127 40.739704 C 39.30127 40.739704 46.6473 36.00447 46.6473 36.00447 C 46.6473 36.00447 53.993332 30.582972 53.993332 30.582972 "/>
                                                        </g>
                                                        <g transform="translate(1.3211111111111102 52.87188888888888)">
                                                            <path class="typst-shape" fill="oklab(55.826% 0.05080 -0.16631)" d="M 0 1.25 C 0 0.56027 0.56027 0 1.25 0 C 1.93973 0 2.5 0.56027 2.5 1.25 C 2.5 1.93973 1.93973 2.5 1.25 2.5 C 0.56027 2.5 0 1.93973 0 1.25 "/>
                                                        </g>
                                                        <g transform="translate(8.667142857142856 51.56798384803094)">
                                                            <path class="typst-shape" fill="oklab(55.826% 0.05080 -0.16631)" d="M 0 1.25 C 0 0.56027 0.56027 0 1.25 0 C 1.93973 0 2.5 0.56027 2.5 1.25 C 2.5 1.93973 1.93973 2.5 1.25 2.5 C 0.56027 2.5 0 1.93973 0 1.25 "/>
                                                        </g>
                                                        <g transform="translate(16.013174603174598 49.57781299619513)">
                                                            <path class="typst-shape" fill="oklab(55.826% 0.05080 -0.16631)" d="M 0 1.25 C 0 0.56027 0.56027 0 1.25 0 C 1.93973 0 2.5 0.56027 2.5 1.25 C 2.5 1.93973 1.93973 2.5 1.25 2.5 C 0.56027 2.5 0 1.93973 0 1.25 "/>
                                                        </g>
                                                        <g transform="translate(23.359206349206342 46.90137633338145)">
                                                            <path class="typst-shape" fill="oklab(55.826% 0.05080 -0.16631)" d="M 0 1.25 C 0 0.56027 0.56027 0 1.25 0 C 1.93973 0 2.5 0.56027 2.5 1.25 C 2.5 1.93973 1.93973 2.5 1.25 2.5 C 0.56027 2.5 0 1.93973 0 1.25 "/>
                                                        </g>
                                                        <g transform="translate(30.705238095238084 43.53867385958991)">
                                                            <path class="typst-shape" fill="oklab(55.826% 0.05080 -0.16631)" d="M 0 1.25 C 0 0.56027 0.56027 0 1.25 0 C 1.93973 0 2.5 0.56027 2.5 1.25 C 2.5 1.93973 1.93973 2.5 1.25 2.5 C 0.56027 2.5 0 1.93973 0 1.25 "/>
                                                        </g>
                                                        <g transform="translate(38.05126984126983 39.4897055748205)">
                                                            <path class="typst-shape" fill="oklab(55.826% 0.05080 -0.16631)" d="M 0 1.25 C 0 0.56027 0.56027 0 1.25 0 C 1.93973 0 2.5 0.56027 2.5 1.25 C 2.5 1.93973 1.93973 2.5 1.25 2.5 C 0.56027 2.5 0 1.93973 0 1.25 "/>
                                                        </g>
                                                        <g transform="translate(45.397301587301584 34.75447147907322)">
                                                            <path class="typst-shape" fill="oklab(55.826% 0.05080 -0.16631)" d="M 0 1.25 C 0 0.56027 0.56027 0 1.25 0 C 1.93973 0 2.5 0.56027 2.5 1.25 C 2.5 1.93973 1.93973 2.5 1.25 2.5 C 0.56027 2.5 0 1.93973 0 1.25 "/>
                                                        </g>
                                                        <g transform="translate(52.743333333333325 29.332971572348082)">
                                                            <path class="typst-shape" fill="oklab(55.826% 0.05080 -0.16631)" d="M 0 1.25 C 0 0.56027 0.56027 0 1.25 0 C 1.93973 0 2.5 0.56027 2.5 1.25 C 2.5 1.93973 1.93973 2.5 1.25 2.5 C 0.56027 2.5 0 1.93973 0 1.25 "/>
                                                        </g>
                                                    </g>
                                                </g>
                                            </g>
                                        </g>
                                    </g>
                                </g>
                                <g transform="translate(0 0)">
                                    <g class="typst-group">
                                        <g>
                                            <g transform="translate(0 0)">
                                                <g class="typst-group" clip-path="url(#c6BA676BBC19937C2CA0AA049AA98629)">
                                                    <g>
                                                        <g transform="translate(1.3211111111111102 46.81902443606411)">
                                                            <path class="typst-shape" fill="oklab(55.826% 0.05080 -0.16631)" d="M 0 1.25 C 0 0.56027 0.56027 0 1.25 0 C 1.93973 0 2.5 0.56027 2.5 1.25 C 2.5 1.93973 1.93973 2.5 1.25 2.5 C 0.56027 2.5 0 1.93973 0 1.25 "/>
                                                        </g>
                                                        <g transform="translate(8.667142857142856 42.01516375921904)">
                                                            <path class="typst-shape" fill="oklab(55.826% 0.05080 -0.16631)" d="M 0 1.25 C 0 0.56027 0.56027 0 1.25 0 C 1.93973 0 2.5 0.56027 2.5 1.25 C 2.5 1.93973 1.93973 2.5 1.25 2.5 C 0.56027 2.5 0 1.93973 0 1.25 "/>
                                                        </g>
                                                        <g transform="translate(16.013174603174598 37.21130308237398)">
                                                            <path class="typst-shape" fill="oklab(55.826% 0.05080 -0.16631)" d="M 0 1.25 C 0 0.56027 0.56027 0 1.25 0 C 1.93973 0 2.5 0.56027 2.5 1.25 C 2.5 1.93973 1.93973 2.5 1.25 2.5 C 0.56027 2.5 0 1.93973 0 1.25 "/>
                                                        </g>
                                                        <g transform="translate(23.359206349206342 32.40744240552892)">
                                                            <path class="typst-shape" fill="oklab(55.826% 0.05080 -0.16631)" d="M 0 1.25 C 0 0.56027 0.56027 0 1.25 0 C 1.93973 0 2.5 0.56027 2.5 1.25 C 2.5 1.93973 1.93973 2.5 1.25 2.5 C 0.56027 2.5 0 1.93973 0 1.25 "/>
                                                        </g>
                                                        <g transform="translate(30.705238095238084 27.603581728683857)">
                                                            <path class="typst-shape" fill="oklab(55.826% 0.05080 -0.16631)" d="M 0 1.25 C 0 0.56027 0.56027 0 1.25 0 C 1.93973 0 2.5 0.56027 2.5 1.25 C 2.5 1.93973 1.93973 2.5 1.25 2.5 C 0.56027 2.5 0 1.93973 0 1.25 "/>
                                                        </g>
                                                        <g transform="translate(38.05126984126983 22.7997210518388)">
                                                            <path class="typst-shape" fill="oklab(55.826% 0.05080 -0.16631)" d="M 0 1.25 C 0 0.56027 0.56027 0 1.25 0 C 1.93973 0 2.5 0.56027 2.5 1.25 C 2.5 1.93973 1.93973 2.5 1.25 2.5 C 0.56027 2.5 0 1.93973 0 1.25 "/>
                                                        </g>
                                                        <g transform="translate(45.397301587301584 17.995860374993732)">
                                                            <path class="typst-shape" fill="oklab(55.826% 0.05080 -0.16631)" d="M 0 1.25 C 0 0.56027 0.56027 0 1.25 0 C 1.93973 0 2.5 0.56027 2.5 1.25 C 2.5 1.93973 1.93973 2.5 1.25 2.5 C 0.56027 2.5 0 1.93973 0 1.25 "/>
                                                        </g>
                                                        <g transform="translate(52.743333333333325 13.19199969814867)">
                                                            <path class="typst-shape" fill="oklab(55.826% 0.05080 -0.16631)" d="M 0 1.25 C 0 0.56027 0.56027 0 1.25 0 C 1.93973 0 2.5 0.56027 2.5 1.25 C 2.5 1.93973 1.93973 2.5 1.25 2.5 C 0.56027 2.5 0 1.93973 0 1.25 "/>
                                                        </g>
                                                    </g>
                                                </g>
                                            </g>
                                        </g>
                                    </g>
                                </g>
                                <g transform="translate(0 0)">
                                    <g class="typst-group">
                                        <g>
                                            <g transform="translate(0 0)">
                                                <g class="typst-group" clip-path="url(#c874212BE8CDCC81B2A45500655852484)">
                                                    <g>
                                                        <g transform="translate(0 0)">
                                                            <path class="typst-shape" fill="none" stroke="oklab(55.826% 0.05080 -0.16631)" stroke-width="0.7" stroke-linecap="butt" stroke-linejoin="miter" stroke-miterlimit="4" d="M 2.5711112 33.526833 C 2.5711112 33.526833 9.917143 26.948606 9.917143 26.948606 C 9.917143 26.948606 17.263174 21.651272 17.263174 21.651272 C 17.263174 21.651272 24.609207 17.09101 24.609207 17.09101 C 24.609207 17.09101 31.955238 13.025697 31.955238 13.025697 C 31.955238 13.025697 39.30127 9.322392 39.30127 9.322392 C 39.30127 9.322392 46.6473 5.8987727 46.6473 5.8987727 C 46.6473 5.8987727 53.993332 2.6996667 53.993332 2.6996667 "/>
                                                        </g>
                                                    </g>
                                                </g>
                                            </g>
                                        </g>
                                    </g>
                                </g>
                                <g transform="translate(0 56.693)">
                                    <path class="typst-shape" fill="none" stroke="#ffffff00" stroke-width="0.7" stroke-linecap="square" stroke-linejoin="miter" stroke-miterlimit="4" d="M 0 0 L 56.693 0 "/>
                                </g>
                                <g transform="translate(0 0)">
                                    <path class="typst-shape" fill="none" stroke="#ffffff00" stroke-width="0.7" stroke-linecap="square" stroke-linejoin="miter" stroke-miterlimit="4" d="M 0 0 L 56.693 0 "/>
                                </g>
                                <g transform="translate(0 0)">
                                    <path class="typst-shape" fill="none" stroke="#ffffff00" stroke-width="0.7" stroke-linecap="square" stroke-linejoin="miter" stroke-miterlimit="4" d="M 0 0 L 0.000000000000003471445 56.693 "/>
                                </g>
                                <g transform="translate(56.693 0)">
                                    <path class="typst-shape" fill="none" stroke="#ffffff00" stroke-width="0.7" stroke-linecap="square" stroke-linejoin="miter" stroke-miterlimit="4" d="M 0 0 L 0.000000000000003471445 56.693 "/>
                                </g>
                            </g>
                        </g>
                    </g>
                </g>
            </g>
        </g>
    </g>
    <defs id="clip-path">
        <clipPath id="c9E8699E63C4BCA3E580EF2F1F79238B">
            <path d="M 0 0 L 56.693 0 L 56.693 56.693 L 0 56.693 Z "/>
        </clipPath>
        <clipPath id="c6BA676BBC19937C2CA0AA049AA98629">
            <path d="M 0 0 L 56.693 0 L 56.693 56.693 L 0 56.693 Z "/>
        </clipPath>
        <clipPath id="c874212BE8CDCC81B2A45500655852484">
            <path d="M 0 0 L 56.693 0 L 56.693 56.693 L 0 56.693 Z "/>
        </clipPath>
    </defs>
</svg>
