<svg class="typst-doc" viewBox="0 0 56.693 56.693" width="56.693pt" height="56.693pt" xmlns="http://www.w3.org/2000/svg" xmlns:xlink="http://www.w3.org/1999/xlink" xmlns:h5="http://www.w3.org/1999/xhtml">
    <g>
        <g transform="translate(0 0)">
            <g class="typst-group">
                <g>
                    <g transform="translate(0 0)">
                        <g class="typst-group">
                            <g>
                                <g transform="translate(0 0)">
                                    <g class="typst-group">
                                        <g>
                                            <g transform="translate(0 0)">
                                                <g class="typst-group" clip-path="url(#c4E944ECDD947123394D96C63DB6C168B)">
                                                    <g>
                                                        <g transform="translate(42.844711256466724 7.798875496522479)">
                                                            <path class="typst-shape" fill="oklab(86.650% 0.01136 -0.03712)" stroke="oklab(86.650% 0.01136 -0.03712)" stroke-width="1" stroke-linecap="butt" stroke-linejoin="miter" stroke-miterlimit="4" d="M 0 4.3994555 C 0 1.9719063 1.9719063 0 4.3994555 0 C 6.8270044 0 8.798911 1.9719063 8.798911 4.3994555 C 8.798911 6.8270044 6.8270044 8.798911 4.3994555 8.798911 C 1.9719063 8.798911 0 6.8270044 0 4.3994555 "/>
                                                        </g>
                                                        <g transform="translate(19.919747750083985 6.903975434793509)">
                                                            <path class="typst-shape" fill="oklab(80.660% 0.01902 -0.06222)" stroke="oklab(80.660% 0.01902 -0.06222)" stroke-width="1" stroke-linecap="butt" stroke-linejoin="miter" stroke-miterlimit="4" d="M 0 2.889394 C 0 1.2950727 1.2950727 0 2.889394 0 C 4.4837155 0 5.778788 1.2950727 5.778788 2.889394 C 5.778788 4.4837155 4.4837155 5.778788 2.889394 5.778788 C 1.2950727 5.778788 0 4.4837155 0 2.889394 "/>
                                                        </g>
                                                        <g transform="translate(22.49445502375343 44.69984371962875)">
                                                            <path class="typst-shape" fill="oklab(71.432% 0.03083 -0.10090)" stroke="oklab(71.432% 0.03083 -0.10090)" stroke-width="1" stroke-linecap="butt" stroke-linejoin="miter" stroke-miterlimit="4" d="M 0 3.9639218 C 0 1.7766931 1.7766931 0 3.9639218 0 C 6.15115 0 7.9278436 1.7766931 7.9278436 3.9639218 C 7.9278436 6.15115 6.15115 7.9278436 3.9639218 7.9278436 C 1.7766931 7.9278436 0 6.15115 0 3.9639218 "/>
                                                        </g>
                                                        <g transform="translate(28.643506619154955 6.10776527544679)">
                                                            <path class="typst-shape" fill="oklab(71.947% 0.03017 -0.09874)" stroke="oklab(71.947% 0.03017 -0.09874)" stroke-width="1" stroke-linecap="butt" stroke-linejoin="miter" stroke-miterlimit="4" d="M 0 3.341068 C 0 1.4975202 1.4975202 0 3.341068 0 C 5.184616 0 6.682136 1.4975202 6.682136 3.341068 C 6.682136 5.184616 5.184616 6.682136 3.341068 6.682136 C 1.4975202 6.682136 0 5.184616 0 3.341068 "/>
                                                        </g>
                                                        <g transform="translate(32.448489769780124 25.383695584449903)">
                                                            <path class="typst-shape" fill="oklab(93.091% 0.00311 -0.01012)" stroke="oklab(93.091% 0.00311 -0.01012)" stroke-width="1" stroke-linecap="butt" stroke-linejoin="miter" stroke-miterlimit="4" d="M 0 3.7875113 C 0 1.6976233 1.6976233 0 3.7875113 0 C 5.8773994 0 7.5750227 1.6976233 7.5750227 3.7875113 C 7.5750227 5.8773994 5.8773994 7.5750227 3.7875113 7.5750227 C 1.6976233 7.5750227 0 5.8773994 0 3.7875113 "/>
                                                        </g>
                                                        <g transform="translate(11.78044309545449 23.508826625843085)">
                                                            <path class="typst-shape" fill="oklab(55.826% 0.05080 -0.16631)" stroke="oklab(55.826% 0.05080 -0.16631)" stroke-width="1" stroke-linecap="butt" stroke-linejoin="miter" stroke-miterlimit="4" d="M 0 4.1512976 C 0 1.860678 1.860678 0 4.1512976 0 C 6.441917 0 8.302595 1.860678 8.302595 4.1512976 C 8.302595 6.441917 6.441917 8.302595 4.1512976 8.302595 C 1.860678 8.302595 0 6.441917 0 4.1512976 "/>
                                                        </g>
                                                        <g transform="translate(31.821697723579042 16.338869009829587)">
                                                            <path class="typst-shape" fill="oklab(63.382% 0.04113 -0.13464)" stroke="oklab(63.382% 0.04113 -0.13464)" stroke-width="1" stroke-linecap="butt" stroke-linejoin="miter" stroke-miterlimit="4" d="M 0 4.1148715 C 0 1.8443513 1.8443513 0 4.1148715 0 C 6.3853917 0 8.229743 1.8443513 8.229743 4.1148715 C 8.229743 6.3853917 6.3853917 8.229743 4.1148715 8.229743 C 1.8443513 8.229743 0 6.3853917 0 4.1148715 "/>
                                                        </g>
                                                        <g transform="translate(42.11756973611675 45.32372947838594)">
                                                            <path class="typst-shape" fill="oklab(90.506% 0.00642 -0.02095)" stroke="oklab(90.506% 0.00642 -0.02095)" stroke-width="1" stroke-linecap="butt" stroke-linejoin="miter" stroke-miterlimit="4" d="M 0 3.4952428 C 0 1.5666237 1.5666237 0 3.4952428 0 C 5.423862 0 6.9904857 1.5666237 6.9904857 3.4952428 C 6.9904857 5.423862 5.423862 6.9904857 3.4952428 6.9904857 C 1.5666237 6.9904857 0 5.423862 0 3.4952428 "/>
                                                        </g>
                                                        <g transform="translate(5.567111063098504 36.092689476705004)">
                                                            <path class="typst-shape" fill="oklab(80.020% 0.01984 -0.06490)" stroke="oklab(80.020% 0.01984 -0.06490)" stroke-width="1" stroke-linecap="butt" stroke-linejoin="miter" stroke-miterlimit="4" d="M 0 2.3069167 C 0 1.0339969 1.0339969 0 2.3069167 0 C 3.5798364 0 4.6138334 1.0339969 4.6138334 2.3069167 C 4.6138334 3.5798364 3.5798364 4.6138334 2.3069167 4.6138334 C 1.0339969 4.6138334 0 3.5798364 0 2.3069167 "/>
                                                        </g>
                                                        <g transform="translate(17.178978935766693 42.34771563827123)">
                                                            <path class="typst-shape" fill="oklab(95.514% 0.00001 0.00004)" stroke="oklab(95.514% 0.00001 0.00004)" stroke-width="1" stroke-linecap="butt" stroke-linejoin="miter" stroke-miterlimit="4" d="M 0 2.5112598 C 0 1.1255869 1.1255869 0 2.5112598 0 C 3.8969328 0 5.0225196 1.1255869 5.0225196 2.5112598 C 5.0225196 3.8969328 3.8969328 5.0225196 2.5112598 5.0225196 C 1.1255869 5.0225196 0 3.8969328 0 2.5112598 "/>
                                                        </g>
                                                    </g>
                                                </g>
                                            </g>
                                        </g>
                                    </g>
                                </g>
                                <g transform="translate(0 56.693)">
                                    <path class="typst-shape" fill="none" stroke="#ffffff00" stroke-width="0.7" stroke-linecap="square" stroke-linejoin="miter" stroke-miterlimit="4" d="M 0 0 L 56.693 0 "/>
                                </g>
                                <g transform="translate(0 0)">
                                    <path class="typst-shape" fill="none" stroke="#ffffff00" stroke-width="0.7" stroke-linecap="square" stroke-linejoin="miter" stroke-miterlimit="4" d="M 0 0 L 56.693 0 "/>
                                </g>
                                <g transform="translate(0 0)">
                                    <path class="typst-shape" fill="none" stroke="#ffffff00" stroke-width="0.7" stroke-linecap="square" stroke-linejoin="miter" stroke-miterlimit="4" d="M 0 0 L 0.000000000000003471445 56.693 "/>
                                </g>
                                <g transform="translate(56.693 0)">
                                    <path class="typst-shape" fill="none" stroke="#ffffff00" stroke-width="0.7" stroke-linecap="square" stroke-linejoin="miter" stroke-miterlimit="4" d="M 0 0 L 0.000000000000003471445 56.693 "/>
                                </g>
                            </g>
                        </g>
                    </g>
                </g>
            </g>
        </g>
    </g>
    <defs id="clip-path">
        <clipPath id="c4E944ECDD947123394D96C63DB6C168B">
            <path d="M 0 0 L 56.693 0 L 56.693 56.693 L 0 56.693 Z "/>
        </clipPath>
    </defs>
</svg>
