<svg class="typst-doc" viewBox="0 0 56.693 56.693" width="56.693pt" height="56.693pt" xmlns="http://www.w3.org/2000/svg" xmlns:xlink="http://www.w3.org/1999/xlink" xmlns:h5="http://www.w3.org/1999/xhtml">
    <g>
        <g transform="translate(0 0)">
            <g class="typst-group">
                <g>
                    <g transform="translate(0 0)">
                        <g class="typst-group">
                            <g>
                                <g transform="translate(0 0)">
                                    <g class="typst-group">
                                        <g>
                                            <g transform="translate(0 0)">
                                                <g class="typst-group" clip-path="url(#cEF2C250D3DE7F87702A3DFCD00C4E38A)">
                                                    <g>
                                                        <g transform="translate(4.685371900826446 56.693)">
                                                            <path class="typst-shape" fill="none" stroke="oklab(55.826% 0.05080 -0.16631)" stroke-width="1" stroke-linecap="butt" stroke-linejoin="miter" stroke-miterlimit="4" d="M 0 0 L 0 -3.5811138 "/>
                                                        </g>
                                                        <g transform="translate(2.6853719008264463 51.111886090750644)">
                                                            <path class="typst-shape" fill="oklab(55.826% 0.05080 -0.16631)" d="M 0 2 C 0 0.896432 0.896432 0 2 0 C 3.103568 0 4 0.896432 4 2 C 4 3.103568 3.103568 4 2 4 C 0.896432 4 0 3.103568 0 2 "/>
                                                        </g>
                                                        <g transform="translate(10.542086776859502 56.693)">
                                                            <path class="typst-shape" fill="none" stroke="oklab(55.826% 0.05080 -0.16631)" stroke-width="1" stroke-linecap="butt" stroke-linejoin="miter" stroke-miterlimit="4" d="M 0 0 L 0 -11.499926 "/>
                                                        </g>
                                                        <g transform="translate(8.542086776859502 43.19307439155006)">
                                                            <path class="typst-shape" fill="oklab(55.826% 0.05080 -0.16631)" d="M 0 2 C 0 0.896432 0.896432 0 2 0 C 3.103568 0 4 0.896432 4 2 C 4 3.103568 3.103568 4 2 4 C 0.896432 4 0 3.103568 0 2 "/>
                                                        </g>
                                                        <g transform="translate(16.398801652892562 56.693)">
                                                            <path class="typst-shape" fill="none" stroke="oklab(55.826% 0.05080 -0.16631)" stroke-width="1" stroke-linecap="butt" stroke-linejoin="miter" stroke-miterlimit="4" d="M 0 0 L 0 -26.461052 "/>
                                                        </g>
                                                        <g transform="translate(14.398801652892562 28.231948427895695)">
                                                            <path class="typst-shape" fill="oklab(55.826% 0.05080 -0.16631)" d="M 0 2 C 0 0.896432 0.896432 0 2 0 C 3.103568 0 4 0.896432 4 2 C 4 3.103568 3.103568 4 2 4 C 0.896432 4 0 3.103568 0 2 "/>
                                                        </g>
                                                        <g transform="translate(22.25551652892562 56.693)">
                                                            <path class="typst-shape" fill="none" stroke="oklab(55.826% 0.05080 -0.16631)" stroke-width="1" stroke-linecap="butt" stroke-linejoin="miter" stroke-miterlimit="4" d="M 0 0 L 0 -43.6269 "/>
                                                        </g>
                                                        <g transform="translate(20.25551652892562 11.066101427978563)">
                                                            <path class="typst-shape" fill="oklab(55.826% 0.05080 -0.16631)" d="M 0 2 C 0 0.896432 0.896432 0 2 0 C 3.103568 0 4 0.896432 4 2 C 4 3.103568 3.103568 4 2 4 C 0.896432 4 0 3.103568 0 2 "/>
                                                        </g>
                                                        <g transform="translate(28.112231404958678 56.693)">
                                                            <path class="typst-shape" fill="none" stroke="oklab(55.826% 0.05080 -0.16631)" stroke-width="1" stroke-linecap="butt" stroke-linejoin="miter" stroke-miterlimit="4" d="M 0 0 L 0 -51.53909 "/>
                                                        </g>
                                                        <g transform="translate(26.112231404958678 3.1539090909090923)">
                                                            <path class="typst-shape" fill="oklab(55.826% 0.05080 -0.16631)" d="M 0 2 C 0 0.896432 0.896432 0 2 0 C 3.103568 0 4 0.896432 4 2 C 4 3.103568 3.103568 4 2 4 C 0.896432 4 0 3.103568 0 2 "/>
                                                        </g>
                                                        <g transform="translate(33.96894628099174 56.693)">
                                                            <path class="typst-shape" fill="none" stroke="oklab(55.826% 0.05080 -0.16631)" stroke-width="1" stroke-linecap="butt" stroke-linejoin="miter" stroke-miterlimit="4" d="M 0 0 L 0 -43.6269 "/>
                                                        </g>
                                                        <g transform="translate(31.968946280991737 11.066101427978563)">
                                                            <path class="typst-shape" fill="oklab(55.826% 0.05080 -0.16631)" d="M 0 2 C 0 0.896432 0.896432 0 2 0 C 3.103568 0 4 0.896432 4 2 C 4 3.103568 3.103568 4 2 4 C 0.896432 4 0 3.103568 0 2 "/>
                                                        </g>
                                                        <g transform="translate(39.82566115702479 56.693)">
                                                            <path class="typst-shape" fill="none" stroke="oklab(55.826% 0.05080 -0.16631)" stroke-width="1" stroke-linecap="butt" stroke-linejoin="miter" stroke-miterlimit="4" d="M 0 0 L 0 -26.461052 "/>
                                                        </g>
                                                        <g transform="translate(37.82566115702479 28.231948427895695)">
                                                            <path class="typst-shape" fill="oklab(55.826% 0.05080 -0.16631)" d="M 0 2 C 0 0.896432 0.896432 0 2 0 C 3.103568 0 4 0.896432 4 2 C 4 3.103568 3.103568 4 2 4 C 0.896432 4 0 3.103568 0 2 "/>
                                                        </g>
                                                        <g transform="translate(45.68237603305786 56.693)">
                                                            <path class="typst-shape" fill="none" stroke="oklab(55.826% 0.05080 -0.16631)" stroke-width="1" stroke-linecap="butt" stroke-linejoin="miter" stroke-miterlimit="4" d="M 0 0 L 0 -11.499926 "/>
                                                        </g>
                                                        <g transform="translate(43.68237603305786 43.19307439155006)">
                                                            <path class="typst-shape" fill="oklab(55.826% 0.05080 -0.16631)" d="M 0 2 C 0 0.896432 0.896432 0 2 0 C 3.103568 0 4 0.896432 4 2 C 4 3.103568 3.103568 4 2 4 C 0.896432 4 0 3.103568 0 2 "/>
                                                        </g>
                                                        <g transform="translate(51.53909090909091 56.693)">
                                                            <path class="typst-shape" fill="none" stroke="oklab(55.826% 0.05080 -0.16631)" stroke-width="1" stroke-linecap="butt" stroke-linejoin="miter" stroke-miterlimit="4" d="M 0 0 L 0 -3.5811138 "/>
                                                        </g>
                                                        <g transform="translate(49.53909090909091 51.111886090750644)">
                                                            <path class="typst-shape" fill="oklab(55.826% 0.05080 -0.16631)" d="M 0 2 C 0 0.896432 0.896432 0 2 0 C 3.103568 0 4 0.896432 4 2 C 4 3.103568 3.103568 4 2 4 C 0.896432 4 0 3.103568 0 2 "/>
                                                        </g>
                                                    </g>
                                                </g>
                                            </g>
                                        </g>
                                    </g>
                                </g>
                                <g transform="translate(0 56.693)">
                                    <path class="typst-shape" fill="none" stroke="#ffffff00" stroke-width="0.7" stroke-linecap="square" stroke-linejoin="miter" stroke-miterlimit="4" d="M 0 0 L 56.693 0 "/>
                                </g>
                                <g transform="translate(0 0)">
                                    <path class="typst-shape" fill="none" stroke="#ffffff00" stroke-width="0.7" stroke-linecap="square" stroke-linejoin="miter" stroke-miterlimit="4" d="M 0 0 L 56.693 0 "/>
                                </g>
                                <g transform="translate(0 0)">
                                    <path class="typst-shape" fill="none" stroke="#ffffff00" stroke-width="0.7" stroke-linecap="square" stroke-linejoin="miter" stroke-miterlimit="4" d="M 0 0 L 0.000000000000003471445 56.693 "/>
                                </g>
                                <g transform="translate(56.693 0)">
                                    <path class="typst-shape" fill="none" stroke="#ffffff00" stroke-width="0.7" stroke-linecap="square" stroke-linejoin="miter" stroke-miterlimit="4" d="M 0 0 L 0.000000000000003471445 56.693 "/>
                                </g>
                            </g>
                        </g>
                    </g>
                </g>
            </g>
        </g>
    </g>
    <defs id="clip-path">
        <clipPath id="cEF2C250D3DE7F87702A3DFCD00C4E38A">
            <path d="M 0 0 L 56.693 0 L 56.693 56.693 L 0 56.693 Z "/>
        </clipPath>
    </defs>
</svg>
