<svg class="typst-doc" viewBox="0 0 56.693 56.693" width="56.693pt" height="56.693pt" xmlns="http://www.w3.org/2000/svg" xmlns:xlink="http://www.w3.org/1999/xlink" xmlns:h5="http://www.w3.org/1999/xhtml">
    <g>
        <g transform="translate(0 0)">
            <g class="typst-group">
                <g>
                    <g transform="translate(0 0)">
                        <g class="typst-group">
                            <g>
                                <g transform="translate(0 0)">
                                    <g class="typst-group">
                                        <g>
                                            <g transform="translate(0 0)">
                                                <g class="typst-group" clip-path="url(#cFF6E5DCEEC005087D06D6AE0F70D2BEE)">
                                                    <g>
                                                        <g transform="translate(0 0)">
                                                            <path class="typst-shape" fill="none" stroke="oklab(55.826% 0.05080 -0.16631)" stroke-width="0.7" stroke-linecap="butt" stroke-linejoin="miter" stroke-miterlimit="4" d="M 7.8740277 35.69559 C 7.8740277 35.69559 7.8740277 48.818974 7.8740277 48.818974 C 7.8740277 48.818974 20.997408 48.818974 20.997408 48.818974 C 20.997408 48.818974 20.997408 9.448833 20.997408 9.448833 C 20.997408 9.448833 34.12079 9.448833 34.12079 9.448833 C 34.12079 9.448833 34.12079 22.572212 34.12079 22.572212 C 34.12079 22.572212 47.244167 22.572212 47.244167 22.572212 "/>
                                                        </g>
                                                        <g transform="translate(5.874027777777778 33.6955925925926)">
                                                            <path class="typst-shape" fill="oklab(55.826% 0.05080 -0.16631)" d="M 0 2 C 0 0.896432 0.896432 0 2 0 C 3.103568 0 4 0.896432 4 2 C 4 3.103568 3.103568 4 2 4 C 0.896432 4 0 3.103568 0 2 "/>
                                                        </g>
                                                        <g transform="translate(18.997407407407405 46.81897222222222)">
                                                            <path class="typst-shape" fill="oklab(55.826% 0.05080 -0.16631)" d="M 0 2 C 0 0.896432 0.896432 0 2 0 C 3.103568 0 4 0.896432 4 2 C 4 3.103568 3.103568 4 2 4 C 0.896432 4 0 3.103568 0 2 "/>
                                                        </g>
                                                        <g transform="translate(32.12078703703703 7.448833333333349)">
                                                            <path class="typst-shape" fill="oklab(55.826% 0.05080 -0.16631)" d="M 0 2 C 0 0.896432 0.896432 0 2 0 C 3.103568 0 4 0.896432 4 2 C 4 3.103568 3.103568 4 2 4 C 0.896432 4 0 3.103568 0 2 "/>
                                                        </g>
                                                        <g transform="translate(45.24416666666666 20.572212962962976)">
                                                            <path class="typst-shape" fill="oklab(55.826% 0.05080 -0.16631)" d="M 0 2 C 0 0.896432 0.896432 0 2 0 C 3.103568 0 4 0.896432 4 2 C 4 3.103568 3.103568 4 2 4 C 0.896432 4 0 3.103568 0 2 "/>
                                                        </g>
                                                    </g>
                                                </g>
                                            </g>
                                        </g>
                                    </g>
                                </g>
                                <g transform="translate(0 56.693)">
                                    <path class="typst-shape" fill="none" stroke="#ffffff00" stroke-width="0.7" stroke-linecap="square" stroke-linejoin="miter" stroke-miterlimit="4" d="M 0 0 L 56.693 0 "/>
                                </g>
                                <g transform="translate(0 0)">
                                    <path class="typst-shape" fill="none" stroke="#ffffff00" stroke-width="0.7" stroke-linecap="square" stroke-linejoin="miter" stroke-miterlimit="4" d="M 0 0 L 56.693 0 "/>
                                </g>
                                <g transform="translate(0 0)">
                                    <path class="typst-shape" fill="none" stroke="#ffffff00" stroke-width="0.7" stroke-linecap="square" stroke-linejoin="miter" stroke-miterlimit="4" d="M 0 0 L 0.000000000000003471445 56.693 "/>
                                </g>
                                <g transform="translate(56.693 0)">
                                    <path class="typst-shape" fill="none" stroke="#ffffff00" stroke-width="0.7" stroke-linecap="square" stroke-linejoin="miter" stroke-miterlimit="4" d="M 0 0 L 0.000000000000003471445 56.693 "/>
                                </g>
                            </g>
                        </g>
                    </g>
                </g>
            </g>
        </g>
    </g>
    <defs id="clip-path">
        <clipPath id="cFF6E5DCEEC005087D06D6AE0F70D2BEE">
            <path d="M 0 0 L 56.693 0 L 56.693 56.693 L 0 56.693 Z "/>
        </clipPath>
    </defs>
</svg>
