<svg class="typst-doc" viewBox="0 0 56.69291338582677 56.69291338582677" width="56.69291338582677pt" height="56.69291338582677pt" xmlns="http://www.w3.org/2000/svg" xmlns:xlink="http://www.w3.org/1999/xlink" xmlns:h5="http://www.w3.org/1999/xhtml">
    <g>
        <g transform="translate(0 0)">
            <g class="typst-group">
                <g>
                    <g transform="translate(0 0)">
                        <g class="typst-group">
                            <g>
                                <g transform="translate(-0 -0)">
                                    <path class="typst-shape" fill="none" stroke="#000000" stroke-width="0" stroke-linecap="butt" stroke-linejoin="miter" stroke-miterlimit="4" d="M 0 0 L 0 56.692913 L 56.692913 56.692913 L 56.692913 0 Z "/>
                                </g>
                                <g transform="translate(0 0)">
                                    <g class="typst-group">
                                        <g>
                                            <g transform="translate(0 0)">
                                                <g class="typst-group" clip-path="url(#cB06013962686C93463A70CAD3568FAE7)">
                                                    <g>
                                                        <g transform="translate(0 0)">
                                                            <path class="typst-shape" fill="oklab(55.826% 0.05080 -0.16631)" fill-rule="nonzero" d="M 3.0371203 56.692913 C 3.0371203 56.692913 3.0371203 52.97667 3.0371203 52.97667 C 3.0371203 52.97667 7.638818 52.97667 7.638818 52.97667 C 7.638818 52.97667 7.638818 56.692913 7.638818 56.692913 C 7.638818 56.692913 3.0371203 56.692913 3.0371203 56.692913 Z "/>
                                                        </g>
                                                        <g transform="translate(0 0)">
                                                            <path class="typst-shape" fill="oklab(55.826% 0.05080 -0.16631)" fill-rule="nonzero" d="M 8.789242 56.692913 C 8.789242 56.692913 8.789242 44.759045 8.789242 44.759045 C 8.789242 44.759045 13.39094 44.759045 13.39094 44.759045 C 13.39094 44.759045 13.39094 56.692913 13.39094 56.692913 C 13.39094 56.692913 8.789242 56.692913 8.789242 56.692913 Z "/>
                                                        </g>
                                                        <g transform="translate(0 0)">
                                                            <path class="typst-shape" fill="oklab(55.826% 0.05080 -0.16631)" fill-rule="nonzero" d="M 14.541364 56.692913 C 14.541364 56.692913 14.541364 29.233374 14.541364 29.233374 C 14.541364 29.233374 19.143063 29.233374 19.143063 29.233374 C 19.143063 29.233374 19.143063 56.692913 19.143063 56.692913 C 19.143063 56.692913 14.541364 56.692913 14.541364 56.692913 Z "/>
                                                        </g>
                                                        <g transform="translate(0 0)">
                                                            <path class="typst-shape" fill="oklab(55.826% 0.05080 -0.16631)" fill-rule="nonzero" d="M 20.293486 56.692913 C 20.293486 56.692913 20.293486 11.4197855 20.293486 11.4197855 C 20.293486 11.4197855 24.895184 11.4197855 24.895184 11.4197855 C 24.895184 11.4197855 24.895184 56.692913 24.895184 56.692913 C 24.895184 56.692913 20.293486 56.692913 20.293486 56.692913 Z "/>
                                                        </g>
                                                        <g transform="translate(0 0)">
                                                            <path class="typst-shape" fill="oklab(55.826% 0.05080 -0.16631)" fill-rule="nonzero" d="M 26.045609 56.692913 C 26.045609 56.692913 26.045609 3.2090328 26.045609 3.2090328 C 26.045609 3.2090328 30.647305 3.2090328 30.647305 3.2090328 C 30.647305 3.2090328 30.647305 56.692913 30.647305 56.692913 C 30.647305 56.692913 26.045609 56.692913 26.045609 56.692913 Z "/>
                                                        </g>
                                                        <g transform="translate(0 0)">
                                                            <path class="typst-shape" fill="oklab(55.826% 0.05080 -0.16631)" fill-rule="nonzero" d="M 31.79773 56.692913 C 31.79773 56.692913 31.79773 11.4197855 31.79773 11.4197855 C 31.79773 11.4197855 36.399426 11.4197855 36.399426 11.4197855 C 36.399426 11.4197855 36.399426 56.692913 36.399426 56.692913 C 36.399426 56.692913 31.79773 56.692913 31.79773 56.692913 Z "/>
                                                        </g>
                                                        <g transform="translate(0 0)">
                                                            <path class="typst-shape" fill="oklab(55.826% 0.05080 -0.16631)" fill-rule="nonzero" d="M 37.54985 56.692913 C 37.54985 56.692913 37.54985 29.233374 37.54985 29.233374 C 37.54985 29.233374 42.15155 29.233374 42.15155 29.233374 C 42.15155 29.233374 42.15155 56.692913 42.15155 56.692913 C 42.15155 56.692913 37.54985 56.692913 37.54985 56.692913 Z "/>
                                                        </g>
                                                        <g transform="translate(0 0)">
                                                            <path class="typst-shape" fill="oklab(55.826% 0.05080 -0.16631)" fill-rule="nonzero" d="M 43.301975 56.692913 C 43.301975 56.692913 43.301975 44.759045 43.301975 44.759045 C 43.301975 44.759045 47.90367 44.759045 47.90367 44.759045 C 47.90367 44.759045 47.90367 56.692913 47.90367 56.692913 C 47.90367 56.692913 43.301975 56.692913 43.301975 56.692913 Z "/>
                                                        </g>
                                                        <g transform="translate(0 0)">
                                                            <path class="typst-shape" fill="oklab(55.826% 0.05080 -0.16631)" fill-rule="nonzero" d="M 49.054096 56.692913 C 49.054096 56.692913 49.054096 52.97667 49.054096 52.97667 C 49.054096 52.97667 53.655792 52.97667 53.655792 52.97667 C 53.655792 52.97667 53.655792 56.692913 53.655792 56.692913 C 53.655792 56.692913 49.054096 56.692913 49.054096 56.692913 Z "/>
                                                        </g>
                                                    </g>
                                                </g>
                                            </g>
                                            <g transform="translate(0 56.69291338582677)">
                                                <path class="typst-shape" fill="none" stroke="#000000" stroke-width="0.7" stroke-linecap="square" stroke-linejoin="miter" stroke-miterlimit="4" d="M 0 0 L 56.692913 0 "/>
                                            </g>
                                            <g transform="translate(0 0)">
                                                <path class="typst-shape" fill="none" stroke="#000000" stroke-width="0.7" stroke-linecap="square" stroke-linejoin="miter" stroke-miterlimit="4" d="M 0 0 L 56.692913 0 "/>
                                            </g>
                                            <g transform="translate(0 0)">
                                                <path class="typst-shape" fill="none" stroke="#000000" stroke-width="0.7" stroke-linecap="square" stroke-linejoin="miter" stroke-miterlimit="4" d="M 0 0 L 0.0000000000000034714398 56.692913 "/>
                                            </g>
                                            <g transform="translate(56.69291338582677 0)">
                                                <path class="typst-shape" fill="none" stroke="#000000" stroke-width="0.7" stroke-linecap="square" stroke-linejoin="miter" stroke-miterlimit="4" d="M 0 0 L 0.0000000000000034714398 56.692913 "/>
                                            </g>
                                        </g>
                                    </g>
                                </g>
                            </g>
                        </g>
                    </g>
                </g>
            </g>
        </g>
    </g>
    <defs id="clip-path">
        <clipPath id="cB06013962686C93463A70CAD3568FAE7">
            <path d="M 0 0 L 56.692913 0 L 56.692913 56.692913 L 0 56.692913 Z "/>
        </clipPath>
    </defs>
</svg>
