<svg class="typst-doc" viewBox="0 0 56.69291338582677 56.69291338582677" width="56.69291338582677pt" height="56.69291338582677pt" xmlns="http://www.w3.org/2000/svg" xmlns:xlink="http://www.w3.org/1999/xlink" xmlns:h5="http://www.w3.org/1999/xhtml">
    <g>
        <g transform="translate(0 0)">
            <g class="typst-group">
                <g>
                    <g transform="translate(0 0)">
                        <g class="typst-group">
                            <g>
                                <g transform="translate(-0 -0)">
                                    <path class="typst-shape" fill="none" stroke="#000000" stroke-width="0" stroke-linecap="butt" stroke-linejoin="miter" stroke-miterlimit="4" d="M 0 0 L 0 56.692913 L 56.692913 56.692913 L 56.692913 0 Z "/>
                                </g>
                                <g transform="translate(0 0)">
                                    <g class="typst-group">
                                        <g>
                                            <g transform="translate(0 0)">
                                                <g class="typst-group" clip-path="url(#cB4171B45F2EE74359097DE259208783B)">
                                                    <g>
                                                        <g transform="translate(0 0)">
                                                            <path class="typst-shape" fill="none" stroke="oklab(59.027% 0.04670 -0.15289)" stroke-width="0.7" stroke-linecap="butt" stroke-linejoin="miter" stroke-miterlimit="4" d="M 40.388165 0 C 40.388165 0 41.23121 3.1009827 41.23121 3.1009827 C 41.23121 3.1009827 41.51037 5.153901 41.51037 5.153901 C 41.51037 5.153901 41.23121 5.5903015 41.23121 5.5903015 C 41.23121 5.5903015 36.07731 7.3501086 36.07731 7.3501086 C 36.07731 7.3501086 32.918926 5.153901 32.918926 5.153901 C 32.918926 5.153901 31.462023 0 31.462023 0 "/>
                                                        </g>
                                                        <g transform="translate(0 0)">
                                                            <path class="typst-shape" fill="none" stroke="oklab(63.088% 0.04151 -0.13587)" stroke-width="0.7" stroke-linecap="butt" stroke-linejoin="miter" stroke-miterlimit="4" d="M 43.491642 0 C 43.491642 0 44.24534 5.153901 44.24534 5.153901 C 44.24534 5.153901 41.23121 9.865814 41.23121 9.865814 C 41.23121 9.865814 37.497818 10.307802 37.497818 10.307802 C 37.497818 10.307802 36.07731 10.412107 36.07731 10.412107 C 36.07731 10.412107 35.866367 10.307802 35.866367 10.307802 C 35.866367 10.307802 30.923407 7.0784836 30.923407 7.0784836 C 30.923407 7.0784836 29.451122 5.153901 29.451122 5.153901 C 29.451122 5.153901 28.541986 0 28.541986 0 "/>
                                                        </g>
                                                        <g transform="translate(0 0)">
                                                            <path class="typst-shape" fill="none" stroke="oklab(67.149% 0.03631 -0.11885)" stroke-width="0.7" stroke-linecap="butt" stroke-linejoin="miter" stroke-miterlimit="4" d="M 0 32.759842 C 0 32.759842 1.9948685 36.07731 1.9948685 36.07731 C 1.9948685 36.07731 2.5407462 41.23121 2.5407462 41.23121 C 2.5407462 41.23121 0.4119754 46.385113 0.4119754 46.385113 C 0.4119754 46.385113 0 46.82329 0 46.82329 "/>
                                                        </g>
                                                        <g transform="translate(0 0)">
                                                            <path class="typst-shape" fill="none" stroke="oklab(67.149% 0.03631 -0.11885)" stroke-width="0.7" stroke-linecap="butt" stroke-linejoin="miter" stroke-miterlimit="4" d="M 46.16411 0 C 46.16411 0 46.385113 1.4191694 46.385113 1.4191694 C 46.385113 1.4191694 47.064423 5.153901 47.064423 5.153901 C 47.064423 5.153901 46.385113 7.352963 46.385113 7.352963 C 46.385113 7.352963 45.117622 10.307802 45.117622 10.307802 C 45.117622 10.307802 41.23121 13.037535 41.23121 13.037535 C 41.23121 13.037535 36.07731 13.06391 36.07731 13.06391 C 36.07731 13.06391 30.923407 10.587635 30.923407 10.587635 C 30.923407 10.587635 30.59257 10.307802 30.59257 10.307802 C 30.59257 10.307802 26.770851 5.153901 26.770851 5.153901 C 26.770851 5.153901 25.919256 0 25.919256 0 "/>
                                                        </g>
                                                        <g transform="translate(0 0)">
                                                            <path class="typst-shape" fill="none" stroke="oklab(71.209% 0.03111 -0.10183)" stroke-width="0.7" stroke-linecap="butt" stroke-linejoin="miter" stroke-miterlimit="4" d="M 0 28.058659 C 0 28.058659 2.7878675 30.923407 2.7878675 30.923407 C 2.7878675 30.923407 4.8433976 36.07731 4.8433976 36.07731 C 4.8433976 36.07731 5.153901 39.67161 5.153901 39.67161 C 5.153901 39.67161 5.4105616 41.23121 5.4105616 41.23121 C 5.4105616 41.23121 5.153901 42.303528 5.153901 42.303528 C 5.153901 42.303528 4.430449 46.385113 4.430449 46.385113 C 4.430449 46.385113 0 51.09739 0 51.09739 "/>
                                                        </g>
                                                        <g transform="translate(0 0)">
                                                            <path class="typst-shape" fill="none" stroke="oklab(71.209% 0.03111 -0.10183)" stroke-width="0.7" stroke-linecap="butt" stroke-linejoin="miter" stroke-miterlimit="4" d="M 49.609215 0 C 49.609215 0 50.185898 5.153901 50.185898 5.153901 C 50.185898 5.153901 49.34193 10.307802 49.34193 10.307802 C 49.34193 10.307802 46.385113 14.346937 46.385113 14.346937 C 46.385113 14.346937 43.862778 15.461703 43.862778 15.461703 C 43.862778 15.461703 41.23121 16.485796 41.23121 16.485796 C 41.23121 16.485796 36.07731 15.962296 36.07731 15.962296 C 36.07731 15.962296 35.003365 15.461703 35.003365 15.461703 C 35.003365 15.461703 30.923407 14.161267 30.923407 14.161267 C 30.923407 14.161267 26.367561 10.307802 26.367561 10.307802 C 26.367561 10.307802 25.769506 9.35782 25.769506 9.35782 C 25.769506 9.35782 23.289557 5.153901 23.289557 5.153901 C 23.289557 5.153901 22.575224 0 22.575224 0 "/>
                                                        </g>
                                                        <g transform="translate(0 0)">
                                                            <path class="typst-shape" fill="none" stroke="oklab(75.270% 0.02592 -0.08481)" stroke-width="0.7" stroke-linecap="butt" stroke-linejoin="miter" stroke-miterlimit="4" d="M 0 16.44188 C 0 16.44188 5.153901 19.190145 5.153901 19.190145 C 5.153901 19.190145 10.307802 20.498934 10.307802 20.498934 C 10.307802 20.498934 15.461561 20.615604 15.461561 20.615604 C 15.461561 20.615604 15.345576 25.769506 15.345576 25.769506 C 15.345576 25.769506 15.308793 30.923407 15.308793 30.923407 C 15.308793 30.923407 15.28944 36.07731 15.28944 36.07731 C 15.28944 36.07731 15.27455 41.23121 15.27455 41.23121 C 15.27455 41.23121 15.259329 46.385113 15.259329 46.385113 C 15.259329 46.385113 15.238497 51.539013 15.238497 51.539013 C 15.238497 51.539013 15.195025 56.692913 15.195025 56.692913 "/>
                                                        </g>
                                                        <g transform="translate(0 0)">
                                                            <path class="typst-shape" fill="none" stroke="oklab(75.270% 0.02592 -0.08481)" stroke-width="0.7" stroke-linecap="butt" stroke-linejoin="miter" stroke-miterlimit="4" d="M 56.692913 29.497948 C 56.692913 29.497948 51.539013 26.749681 51.539013 26.749681 C 51.539013 26.749681 46.385113 25.826113 46.385113 25.826113 C 46.385113 25.826113 41.24386 25.769506 41.24386 25.769506 C 41.24386 25.769506 41.23121 25.76946 41.23121 25.76946 C 41.23121 25.76946 36.07731 25.652834 36.07731 25.652834 C 36.07731 25.652834 30.923407 24.344046 30.923407 24.344046 C 30.923407 24.344046 25.769506 21.59578 25.769506 21.59578 C 25.769506 21.59578 20.615604 20.67221 20.615604 20.67221 C 20.615604 20.67221 15.461763 20.615604 15.461763 20.615604 C 15.461763 20.615604 15.461703 20.61556 15.461703 20.61556 C 15.461703 20.61556 15.105901 15.461703 15.105901 15.461703 C 15.105901 15.461703 15.216025 10.307802 15.216025 10.307802 C 15.216025 10.307802 15.247206 5.153901 15.247206 5.153901 C 15.247206 5.153901 15.265117 0 15.265117 0 "/>
                                                        </g>
                                                        <g transform="translate(0 0)">
                                                            <path class="typst-shape" fill="none" stroke="oklab(79.331% 0.02072 -0.06779)" stroke-width="0.7" stroke-linecap="butt" stroke-linejoin="miter" stroke-miterlimit="4" d="M 0 6.806249 C 0 6.806249 2.1251295 5.153901 2.1251295 5.153901 C 2.1251295 5.153901 4.9555764 0 4.9555764 0 "/>
                                                        </g>
                                                        <g transform="translate(0 0)">
                                                            <path class="typst-shape" fill="none" stroke="oklab(79.331% 0.02072 -0.06779)" stroke-width="0.7" stroke-linecap="butt" stroke-linejoin="miter" stroke-miterlimit="4" d="M 48.418495 56.692913 C 48.418495 56.692913 50.075996 51.539013 50.075996 51.539013 C 50.075996 51.539013 49.977043 46.385113 49.977043 46.385113 C 49.977043 46.385113 48.243523 41.23121 48.243523 41.23121 C 48.243523 41.23121 46.385113 38.92723 46.385113 38.92723 C 46.385113 38.92723 43.04815 36.07731 43.04815 36.07731 C 43.04815 36.07731 41.23121 34.801537 41.23121 34.801537 C 41.23121 34.801537 36.07731 33.020065 36.07731 33.020065 C 36.07731 33.020065 30.923407 32.942223 30.923407 32.942223 C 30.923407 32.942223 25.769506 35.702496 25.769506 35.702496 C 25.769506 35.702496 25.427477 36.07731 25.427477 36.07731 C 25.427477 36.07731 22.87994 41.23121 22.87994 41.23121 C 22.87994 41.23121 22.658367 46.385113 22.658367 46.385113 C 22.658367 46.385113 24.037867 51.539013 24.037867 51.539013 C 24.037867 51.539013 25.769506 53.97655 25.769506 53.97655 C 25.769506 53.97655 28.124842 56.692913 28.124842 56.692913 "/>
                                                        </g>
                                                        <g transform="translate(0 0)">
                                                            <path class="typst-shape" fill="none" stroke="oklab(83.392% 0.01552 -0.05077)" stroke-width="0.7" stroke-linecap="butt" stroke-linejoin="miter" stroke-miterlimit="4" d="M 0 2.1549866 C 0 2.1549866 1.6341393 0 1.6341393 0 "/>
                                                        </g>
                                                        <g transform="translate(0 0)">
                                                            <path class="typst-shape" fill="none" stroke="oklab(83.392% 0.01552 -0.05077)" stroke-width="0.7" stroke-linecap="butt" stroke-linejoin="miter" stroke-miterlimit="4" d="M 42.820297 56.692913 C 42.820297 56.692913 46.385113 52.37489 46.385113 52.37489 C 46.385113 52.37489 46.7744 51.539013 46.7744 51.539013 C 46.7744 51.539013 46.76396 46.385113 46.76396 46.385113 C 46.76396 46.385113 46.385113 45.549232 46.385113 45.549232 C 46.385113 45.549232 44.387146 41.23121 44.387146 41.23121 C 44.387146 41.23121 41.23121 38.312363 41.23121 38.312363 C 41.23121 38.312363 36.07731 36.37683 36.07731 36.37683 C 36.07731 36.37683 30.923407 36.69881 30.923407 36.69881 C 30.923407 36.69881 26.53457 41.23121 26.53457 41.23121 C 26.53457 41.23121 25.996883 46.385113 25.996883 46.385113 C 25.996883 46.385113 27.647465 51.539013 27.647465 51.539013 C 27.647465 51.539013 30.923407 55.061592 30.923407 55.061592 C 30.923407 55.061592 34.217243 56.692913 34.217243 56.692913 "/>
                                                        </g>
                                                        <g transform="translate(0 0)">
                                                            <path class="typst-shape" fill="none" stroke="oklab(87.452% 0.01033 -0.03375)" stroke-width="0.7" stroke-linecap="butt" stroke-linejoin="miter" stroke-miterlimit="4" d="M 30.923407 51.845 C 30.923407 51.845 36.07731 54.81154 36.07731 54.81154 C 36.07731 54.81154 41.23121 54.243465 41.23121 54.243465 C 41.23121 54.243465 43.68932 51.539013 43.68932 51.539013 C 43.68932 51.539013 44.11744 46.385113 44.11744 46.385113 C 44.11744 46.385113 41.23121 41.399426 41.23121 41.399426 C 41.23121 41.399426 41.02375 41.23121 41.02375 41.23121 C 41.02375 41.23121 36.07731 38.92752 36.07731 38.92752 C 36.07731 38.92752 30.923407 40.023552 30.923407 40.023552 C 30.923407 40.023552 29.754004 41.23121 29.754004 41.23121 C 29.754004 41.23121 28.519129 46.385113 28.519129 46.385113 C 28.519129 46.385113 30.638842 51.539013 30.638842 51.539013 C 30.638842 51.539013 30.923407 51.845 30.923407 51.845 "/>
                                                        </g>
                                                        <g transform="translate(0 0)">
                                                            <path class="typst-shape" fill="none" stroke="oklab(91.513% 0.00513 -0.01673)" stroke-width="0.7" stroke-linecap="butt" stroke-linejoin="miter" stroke-miterlimit="4" d="M 36.07731 52.175087 C 36.07731 52.175087 38.92308 51.539013 38.92308 51.539013 C 38.92308 51.539013 41.23121 48.37137 41.23121 48.37137 C 41.23121 48.37137 41.546646 46.385113 41.546646 46.385113 C 41.546646 46.385113 41.23121 45.84022 41.23121 45.84022 C 41.23121 45.84022 36.07731 41.69242 36.07731 41.69242 C 36.07731 41.69242 31.156973 46.385113 31.156973 46.385113 C 31.156973 46.385113 34.992413 51.539013 34.992413 51.539013 C 34.992413 51.539013 36.07731 52.175087 36.07731 52.175087 "/>
                                                        </g>
                                                    </g>
                                                </g>
                                            </g>
                                            <g transform="translate(0 0)">
                                                <g class="typst-group" clip-path="url(#c7C6212C7ECD920C79BED22AF879B3A4)">
                                                    <g>
                                                        <g transform="translate(0 0)">
                                                            <path class="typst-shape" fill="oklab(60.602% 0.04469 -0.14629)" fill-rule="nonzero" d="M 56.692913 28.346457 C 56.692913 28.346457 56.692913 56.692913 56.692913 56.692913 C 56.692913 56.692913 0 56.692913 0 56.692913 C 0 56.692913 0 28.346457 0 28.346457 C 0 28.346457 56.692913 28.346457 56.692913 28.346457 C 56.692913 28.346457 56.692913 28.346457 56.692913 28.346457 Z "/>
                                                        </g>
                                                        <g transform="translate(0 0)">
                                                            <path class="typst-shape" fill="oklab(65.600% 0.03829 -0.12534)" fill-rule="nonzero" d="M 56.692913 28.346457 C 56.692913 28.346457 56.692913 56.692913 56.692913 56.692913 C 56.692913 56.692913 0 56.692913 0 56.692913 C 0 56.692913 0 28.346457 0 28.346457 C 0 28.346457 56.692913 28.346457 56.692913 28.346457 C 56.692913 28.346457 14.173228 42.519684 14.173228 42.519684 C 14.173228 42.519684 0.052909598 28.346457 0.052909598 28.346457 C 0.052909598 28.346457 0 28.346457 0 28.346457 C 0 28.346457 0 51.088306 0 51.088306 C 0 51.088306 2.8695102 48.962063 2.8695102 48.962063 C 2.8695102 48.962063 4.430449 46.385113 4.430449 46.385113 C 4.430449 46.385113 5.080167 43.80816 5.080167 43.80816 C 5.080167 43.80816 5.153901 42.952778 5.153901 42.952778 C 5.153901 42.952778 5.4105616 41.23121 5.4105616 41.23121 C 5.4105616 41.23121 5.2456903 38.65426 5.2456903 38.65426 C 5.2456903 38.65426 5.153901 38.315758 5.153901 38.315758 C 5.153901 38.315758 4.8433976 36.07731 4.8433976 36.07731 C 4.8433976 36.07731 4.1314225 33.50036 4.1314225 33.50036 C 4.1314225 33.50036 2.7878675 30.923407 2.7878675 30.923407 C 2.7878675 30.923407 0.052909598 28.346457 0.052909598 28.346457 C 0.052909598 28.346457 14.173228 42.519684 14.173228 42.519684 C 14.173228 42.519684 56.692913 28.346457 56.692913 28.346457 Z "/>
                                                        </g>
                                                        <g transform="translate(0 0)">
                                                            <path class="typst-shape" fill="oklab(70.598% 0.03190 -0.10439)" fill-rule="nonzero" d="M 15.323249 28.346457 C 15.323249 28.346457 56.692913 28.346457 56.692913 28.346457 C 56.692913 28.346457 56.692913 56.692913 56.692913 56.692913 C 56.692913 56.692913 15.195025 56.692913 15.195025 56.692913 C 15.195025 56.692913 15.222076 54.115963 15.222076 54.115963 C 15.222076 54.115963 15.238497 51.539013 15.238497 51.539013 C 15.238497 51.539013 15.250135 48.962063 15.250135 48.962063 C 15.250135 48.962063 15.259329 46.385113 15.259329 46.385113 C 15.259329 46.385113 15.267236 43.80816 15.267236 43.80816 C 15.267236 43.80816 15.27455 41.23121 15.27455 41.23121 C 15.27455 41.23121 15.281787 38.65426 15.281787 38.65426 C 15.281787 38.65426 15.28944 36.07731 15.28944 36.07731 C 15.28944 36.07731 15.298123 33.50036 15.298123 33.50036 C 15.298123 33.50036 15.308793 30.923407 15.308793 30.923407 C 15.308793 30.923407 15.323249 28.346457 15.323249 28.346457 C 15.323249 28.346457 14.173228 42.519684 14.173228 42.519684 C 14.173228 42.519684 56.692913 28.364588 56.692913 28.364588 C 56.692913 28.364588 56.692913 28.346457 56.692913 28.346457 C 56.692913 28.346457 56.65459 28.346457 56.65459 28.346457 C 56.65459 28.346457 56.692913 28.364588 56.692913 28.364588 C 56.692913 28.364588 14.173228 42.519684 14.173228 42.519684 C 14.173228 42.519684 15.323249 28.346457 15.323249 28.346457 Z "/>
                                                        </g>
                                                        <g transform="translate(0 0)">
                                                            <path class="typst-shape" fill="oklab(75.596% 0.02550 -0.08345)" fill-rule="nonzero" d="M 48.418495 56.692913 C 48.418495 56.692913 28.124842 56.692913 28.124842 56.692913 C 28.124842 56.692913 25.881966 54.115963 25.881966 54.115963 C 25.881966 54.115963 25.769506 53.928383 25.769506 53.928383 C 25.769506 53.928383 24.037867 51.539013 24.037867 51.539013 C 24.037867 51.539013 23.088894 48.962063 23.088894 48.962063 C 23.088894 48.962063 22.658367 46.385113 22.658367 46.385113 C 22.658367 46.385113 22.589941 43.80816 22.589941 43.80816 C 22.589941 43.80816 22.87994 41.23121 22.87994 41.23121 C 22.87994 41.23121 23.677057 38.65426 23.677057 38.65426 C 23.677057 38.65426 25.427477 36.07731 25.427477 36.07731 C 25.427477 36.07731 25.769506 35.73598 25.769506 35.73598 C 25.769506 35.73598 30.246668 33.50036 30.246668 33.50036 C 30.246668 33.50036 30.923407 33.268497 30.923407 33.268497 C 30.923407 33.268497 36.07731 33.492016 36.07731 33.492016 C 36.07731 33.492016 36.10296 33.50036 36.10296 33.50036 C 36.10296 33.50036 41.23121 35.04347 41.23121 35.04347 C 41.23121 35.04347 43.04815 36.07731 43.04815 36.07731 C 43.04815 36.07731 46.06693 38.65426 46.06693 38.65426 C 46.06693 38.65426 46.385113 39.055492 46.385113 39.055492 C 46.385113 39.055492 48.243523 41.23121 48.243523 41.23121 C 48.243523 41.23121 49.404236 43.80816 49.404236 43.80816 C 49.404236 43.80816 49.977043 46.385113 49.977043 46.385113 C 49.977043 46.385113 50.183563 48.962063 50.183563 48.962063 C 50.183563 48.962063 50.075996 51.539013 50.075996 51.539013 C 50.075996 51.539013 49.579124 54.115963 49.579124 54.115963 C 49.579124 54.115963 48.418495 56.692913 48.418495 56.692913 C 48.418495 56.692913 14.173228 42.519684 14.173228 42.519684 C 14.173228 42.519684 48.418495 56.692913 48.418495 56.692913 Z "/>
                                                        </g>
                                                        <g transform="translate(0 0)">
                                                            <path class="typst-shape" fill="oklab(80.594% 0.01911 -0.06250)" fill-rule="nonzero" d="M 42.820297 56.692913 C 42.820297 56.692913 34.217243 56.692913 34.217243 56.692913 C 34.217243 56.692913 30.923407 55.09342 30.923407 55.09342 C 30.923407 55.09342 29.73061 54.115963 29.73061 54.115963 C 29.73061 54.115963 27.647465 51.539013 27.647465 51.539013 C 27.647465 51.539013 26.527256 48.962063 26.527256 48.962063 C 26.527256 48.962063 25.996883 46.385113 25.996883 46.385113 C 25.996883 46.385113 25.961454 43.80816 25.961454 43.80816 C 25.961454 43.80816 26.53457 41.23121 26.53457 41.23121 C 26.53457 41.23121 28.1634 38.65426 28.1634 38.65426 C 28.1634 38.65426 30.923407 36.66185 30.923407 36.66185 C 30.923407 36.66185 36.07731 36.370987 36.07731 36.370987 C 36.07731 36.370987 41.23121 38.358345 41.23121 38.358345 C 41.23121 38.358345 41.65306 38.65426 41.65306 38.65426 C 41.65306 38.65426 44.387146 41.23121 44.387146 41.23121 C 44.387146 41.23121 45.88257 43.80816 45.88257 43.80816 C 45.88257 43.80816 46.385113 45.37397 46.385113 45.37397 C 46.385113 45.37397 46.76396 46.385113 46.76396 46.385113 C 46.76396 46.385113 47.085796 48.962063 47.085796 48.962063 C 47.085796 48.962063 46.7744 51.539013 46.7744 51.539013 C 46.7744 51.539013 46.385113 52.55015 46.385113 52.55015 C 46.385113 52.55015 45.665066 54.115963 45.665066 54.115963 C 45.665066 54.115963 42.820297 56.692913 42.820297 56.692913 C 42.820297 56.692913 14.173228 42.519684 14.173228 42.519684 C 14.173228 42.519684 42.820297 56.692913 42.820297 56.692913 Z "/>
                                                        </g>
                                                        <g transform="translate(0 0)">
                                                            <path class="typst-shape" fill="oklab(85.592% 0.01271 -0.04155)" fill-rule="nonzero" d="M 30.923407 51.851215 C 30.923407 51.851215 30.638842 51.539013 30.638842 51.539013 C 30.638842 51.539013 29.134724 48.962063 29.134724 48.962063 C 29.134724 48.962063 28.519129 46.385113 28.519129 46.385113 C 28.519129 46.385113 28.662697 43.80816 28.662697 43.80816 C 28.662697 43.80816 29.754004 41.23121 29.754004 41.23121 C 29.754004 41.23121 30.923407 39.94203 30.923407 39.94203 C 30.923407 39.94203 36.07731 38.88075 36.07731 38.88075 C 36.07731 38.88075 41.02375 41.23121 41.02375 41.23121 C 41.02375 41.23121 41.23121 41.365322 41.23121 41.365322 C 41.23121 41.365322 43.130253 43.80816 43.130253 43.80816 C 43.130253 43.80816 44.11744 46.385113 44.11744 46.385113 C 44.11744 46.385113 44.32695 48.962063 44.32695 48.962063 C 44.32695 48.962063 43.68932 51.539013 43.68932 51.539013 C 43.68932 51.539013 41.721542 54.115963 41.721542 54.115963 C 41.721542 54.115963 41.23121 54.491673 41.23121 54.491673 C 41.23121 54.491673 36.07731 54.923428 36.07731 54.923428 C 36.07731 54.923428 34.42497 54.115963 34.42497 54.115963 C 34.42497 54.115963 30.923407 51.851215 30.923407 51.851215 C 30.923407 51.851215 14.173228 42.519684 14.173228 42.519684 C 14.173228 42.519684 30.923407 51.851215 30.923407 51.851215 Z "/>
                                                        </g>
                                                        <g transform="translate(0 0)">
                                                            <path class="typst-shape" fill="oklab(90.590% 0.00631 -0.02060)" fill-rule="nonzero" d="M 36.07731 52.21802 C 36.07731 52.21802 34.992413 51.539013 34.992413 51.539013 C 34.992413 51.539013 32.327515 48.962063 32.327515 48.962063 C 32.327515 48.962063 31.156973 46.385113 31.156973 46.385113 C 31.156973 46.385113 31.959356 43.80816 31.959356 43.80816 C 31.959356 43.80816 36.07731 41.566116 36.07731 41.566116 C 36.07731 41.566116 39.563858 43.80816 39.563858 43.80816 C 39.563858 43.80816 41.23121 45.6544 41.23121 45.6544 C 41.23121 45.6544 41.546646 46.385113 41.546646 46.385113 C 41.546646 46.385113 41.66717 48.962063 41.66717 48.962063 C 41.66717 48.962063 41.23121 50.136696 41.23121 50.136696 C 41.23121 50.136696 38.92308 51.539013 38.92308 51.539013 C 38.92308 51.539013 36.07731 52.21802 36.07731 52.21802 C 36.07731 52.21802 14.173228 42.519684 14.173228 42.519684 C 14.173228 42.519684 36.07731 52.21802 36.07731 52.21802 Z "/>
                                                        </g>
                                                    </g>
                                                </g>
                                            </g>
                                            <g transform="translate(0 56.69291338582677)">
                                                <path class="typst-shape" fill="none" stroke="#000000" stroke-width="0.7" stroke-linecap="square" stroke-linejoin="miter" stroke-miterlimit="4" d="M 0 0 L 56.692913 0 "/>
                                            </g>
                                            <g transform="translate(0 0)">
                                                <path class="typst-shape" fill="none" stroke="#000000" stroke-width="0.7" stroke-linecap="square" stroke-linejoin="miter" stroke-miterlimit="4" d="M 0 0 L 56.692913 0 "/>
                                            </g>
                                            <g transform="translate(0 0)">
                                                <path class="typst-shape" fill="none" stroke="#000000" stroke-width="0.7" stroke-linecap="square" stroke-linejoin="miter" stroke-miterlimit="4" d="M 0 0 L 0.0000000000000034714398 56.692913 "/>
                                            </g>
                                            <g transform="translate(56.69291338582677 0)">
                                                <path class="typst-shape" fill="none" stroke="#000000" stroke-width="0.7" stroke-linecap="square" stroke-linejoin="miter" stroke-miterlimit="4" d="M 0 0 L 0.0000000000000034714398 56.692913 "/>
                                            </g>
                                        </g>
                                    </g>
                                </g>
                            </g>
                        </g>
                    </g>
                </g>
            </g>
        </g>
    </g>
    <defs id="clip-path">
        <clipPath id="cB4171B45F2EE74359097DE259208783B">
            <path d="M 0 0 L 56.692913 0 L 56.692913 56.692913 L 0 56.692913 Z "/>
        </clipPath>
        <clipPath id="c7C6212C7ECD920C79BED22AF879B3A4">
            <path d="M 0 0 L 56.692913 0 L 56.692913 56.692913 L 0 56.692913 Z "/>
        </clipPath>
    </defs>
</svg>
