<svg class="typst-doc" viewBox="0 0 56.69291338582677 56.69291338582677" width="56.69291338582677pt" height="56.69291338582677pt" xmlns="http://www.w3.org/2000/svg" xmlns:xlink="http://www.w3.org/1999/xlink" xmlns:h5="http://www.w3.org/1999/xhtml">
    <g>
        <g transform="translate(0 0)">
            <g class="typst-group">
                <g>
                    <g transform="translate(0 0)">
                        <g class="typst-group">
                            <g>
                                <g transform="translate(-0 -0)">
                                    <path class="typst-shape" fill="none" stroke="#000000" stroke-width="0" stroke-linecap="butt" stroke-linejoin="miter" stroke-miterlimit="4" d="M 0 0 L 0 56.692913 L 56.692913 56.692913 L 56.692913 0 Z "/>
                                </g>
                                <g transform="translate(0 0)">
                                    <g class="typst-group">
                                        <g>
                                            <g transform="translate(0 0)">
                                                <g class="typst-group" clip-path="url(#cDC55B314CF48DA3F374B7976BB1D51DD)">
                                                    <g>
                                                        <g transform="translate(0 0)">
                                                            <path class="typst-shape" fill="oklab(73.495% 0.05080 -0.16631)" fill-rule="nonzero" stroke="oklab(55.826% 0.05080 -0.16631)" stroke-width="0.7" stroke-linecap="butt" stroke-linejoin="miter" stroke-miterlimit="4" d="M 3.0371203 28.473736 C 3.0371203 28.473736 5.1462317 25.302431 5.1462317 25.302431 C 5.1462317 25.302431 7.255343 22.180616 7.255343 22.180616 C 7.255343 22.180616 9.364454 19.157001 9.364454 19.157001 C 9.364454 19.157001 11.473566 16.278772 11.473566 16.278772 C 11.473566 16.278772 13.582677 13.590841 13.582677 13.590841 C 13.582677 13.590841 15.691789 11.135153 15.691789 11.135153 C 15.691789 11.135153 17.8009 8.9500265 17.8009 8.9500265 C 17.8009 8.9500265 19.910011 7.069562 19.910011 7.069562 C 19.910011 7.069562 22.019123 5.523102 22.019123 5.523102 C 22.019123 5.523102 24.128235 4.334779 24.128235 4.334779 C 24.128235 4.334779 26.237345 3.5231364 26.237345 3.5231364 C 26.237345 3.5231364 28.346457 3.1008394 28.346457 3.1008394 C 28.346457 3.1008394 30.455568 3.0744781 30.455568 3.0744781 C 30.455568 3.0744781 32.56468 3.4444637 32.56468 3.4444637 C 32.56468 3.4444637 34.67379 4.205023 34.67379 4.205023 C 34.67379 4.205023 36.7829 5.344287 36.7829 5.344287 C 36.7829 5.344287 38.892014 6.844478 38.892014 6.844478 C 38.892014 6.844478 41.001125 8.682187 41.001125 8.682187 C 41.001125 8.682187 43.110237 10.828736 43.110237 10.828736 C 43.110237 10.828736 45.21935 13.250629 45.21935 13.250629 C 45.21935 13.250629 47.32846 15.910075 47.32846 15.910075 C 47.32846 15.910075 49.43757 18.765572 49.43757 18.765572 C 49.43757 18.765572 51.54668 21.77256 51.54668 21.77256 C 51.54668 21.77256 53.655792 24.884119 53.655792 24.884119 C 53.655792 24.884119 53.655792 53.655792 53.655792 53.655792 C 53.655792 53.655792 51.54668 53.01178 51.54668 53.01178 C 51.54668 53.01178 49.43757 51.98486 49.43757 51.98486 C 49.43757 51.98486 47.32846 50.591053 47.32846 50.591053 C 47.32846 50.591053 45.21935 48.852116 45.21935 48.852116 C 45.21935 48.852116 43.110237 46.79518 43.110237 46.79518 C 43.110237 46.79518 41.001125 44.452347 41.001125 44.452347 C 41.001125 44.452347 38.892014 41.86017 38.892014 41.86017 C 38.892014 41.86017 36.7829 39.0591 36.7829 39.0591 C 36.7829 39.0591 34.67379 36.092854 34.67379 36.092854 C 34.67379 36.092854 32.56468 33.007713 32.56468 33.007713 C 32.56468 33.007713 30.455568 29.851818 30.455568 29.851818 C 30.455568 29.851818 28.346457 26.67442 28.346457 26.67442 C 28.346457 26.67442 26.237345 23.5251 26.237345 23.5251 C 26.237345 23.5251 24.128235 20.453001 24.128235 20.453001 C 24.128235 20.453001 22.019123 17.506063 22.019123 17.506063 C 22.019123 17.506063 19.910011 14.730273 19.910011 14.730273 C 19.910011 14.730273 17.8009 12.168945 17.8009 12.168945 C 17.8009 12.168945 15.691789 9.862047 15.691789 9.862047 C 15.691789 9.862047 13.582677 7.8455787 13.582677 7.8455787 C 13.582677 7.8455787 11.473566 6.1510057 11.473566 6.1510057 C 11.473566 6.1510057 9.364454 4.8047714 9.364454 4.8047714 C 9.364454 4.8047714 7.255343 3.827883 7.255343 3.827883 C 7.255343 3.827883 5.1462317 3.2355852 5.1462317 3.2355852 C 5.1462317 3.2355852 3.0371203 3.0371203 3.0371203 3.0371203 C 3.0371203 3.0371203 3.0371203 28.473736 3.0371203 28.473736 Z "/>
                                                        </g>
                                                    </g>
                                                </g>
                                            </g>
                                            <g transform="translate(0 56.69291338582677)">
                                                <path class="typst-shape" fill="none" stroke="#000000" stroke-width="0.7" stroke-linecap="square" stroke-linejoin="miter" stroke-miterlimit="4" d="M 0 0 L 56.692913 0 "/>
                                            </g>
                                            <g transform="translate(0 0)">
                                                <path class="typst-shape" fill="none" stroke="#000000" stroke-width="0.7" stroke-linecap="square" stroke-linejoin="miter" stroke-miterlimit="4" d="M 0 0 L 56.692913 0 "/>
                                            </g>
                                            <g transform="translate(0 0)">
                                                <path class="typst-shape" fill="none" stroke="#000000" stroke-width="0.7" stroke-linecap="square" stroke-linejoin="miter" stroke-miterlimit="4" d="M 0 0 L 0.0000000000000034714398 56.692913 "/>
                                            </g>
                                            <g transform="translate(56.69291338582677 0)">
                                                <path class="typst-shape" fill="none" stroke="#000000" stroke-width="0.7" stroke-linecap="square" stroke-linejoin="miter" stroke-miterlimit="4" d="M 0 0 L 0.0000000000000034714398 56.692913 "/>
                                            </g>
                                        </g>
                                    </g>
                                </g>
                            </g>
                        </g>
                    </g>
                </g>
            </g>
        </g>
    </g>
    <defs id="clip-path">
        <clipPath id="cDC55B314CF48DA3F374B7976BB1D51DD">
            <path d="M 0 0 L 56.692913 0 L 56.692913 56.692913 L 0 56.692913 Z "/>
        </clipPath>
    </defs>
</svg>
