<svg class="typst-doc" viewBox="0 0 56.69291338582677 56.69291338582677" width="56.69291338582677pt" height="56.69291338582677pt" xmlns="http://www.w3.org/2000/svg" xmlns:xlink="http://www.w3.org/1999/xlink" xmlns:h5="http://www.w3.org/1999/xhtml">
    <g>
        <g transform="translate(0 0)">
            <g class="typst-group">
                <g>
                    <g transform="translate(0 0)">
                        <g class="typst-group">
                            <g>
                                <g transform="translate(-0 -0)">
                                    <path class="typst-shape" fill="none" stroke="#000000" stroke-width="0" stroke-linecap="butt" stroke-linejoin="miter" stroke-miterlimit="4" d="M 0 0 L 0 56.692913 L 56.692913 56.692913 L 56.692913 0 Z "/>
                                </g>
                                <g transform="translate(0 0)">
                                    <g class="typst-group">
                                        <g>
                                            <g transform="translate(0 0)">
                                                <g class="typst-group" clip-path="url(#c37EA92627A5555F441CAFAB2F6FF6010)">
                                                    <g>
                                                        <g transform="translate(0 0)">
                                                            <path class="typst-shape" fill="none" stroke="oklab(55.826% 0.05080 -0.16631)" stroke-width="0.7" stroke-linecap="butt" stroke-linejoin="miter" stroke-miterlimit="4" d="M 0 51.968502 C 0 51.968502 3.5811083 51.968502 3.5811083 51.968502 "/>
                                                        </g>
                                                        <g transform="translate(0 0)">
                                                            <path class="typst-shape" fill="none" stroke="oklab(55.826% 0.05080 -0.16631)" stroke-width="0.7" stroke-linecap="butt" stroke-linejoin="miter" stroke-miterlimit="4" d="M 0 46.062992 C 0 46.062992 11.499908 46.062992 11.499908 46.062992 "/>
                                                        </g>
                                                        <g transform="translate(0 0)">
                                                            <path class="typst-shape" fill="none" stroke="oklab(55.826% 0.05080 -0.16631)" stroke-width="0.7" stroke-linecap="butt" stroke-linejoin="miter" stroke-miterlimit="4" d="M 0 40.157482 C 0 40.157482 26.461012 40.157482 26.461012 40.157482 "/>
                                                        </g>
                                                        <g transform="translate(0 0)">
                                                            <path class="typst-shape" fill="none" stroke="oklab(55.826% 0.05080 -0.16631)" stroke-width="0.7" stroke-linecap="butt" stroke-linejoin="miter" stroke-miterlimit="4" d="M 0 34.25197 C 0 34.25197 43.62683 34.25197 43.62683 34.25197 "/>
                                                        </g>
                                                        <g transform="translate(0 0)">
                                                            <path class="typst-shape" fill="none" stroke="oklab(55.826% 0.05080 -0.16631)" stroke-width="0.7" stroke-linecap="butt" stroke-linejoin="miter" stroke-miterlimit="4" d="M 0 28.346457 C 0 28.346457 51.539013 28.346457 51.539013 28.346457 "/>
                                                        </g>
                                                        <g transform="translate(0 0)">
                                                            <path class="typst-shape" fill="none" stroke="oklab(55.826% 0.05080 -0.16631)" stroke-width="0.7" stroke-linecap="butt" stroke-linejoin="miter" stroke-miterlimit="4" d="M 0 22.440945 C 0 22.440945 43.62683 22.440945 43.62683 22.440945 "/>
                                                        </g>
                                                        <g transform="translate(0 0)">
                                                            <path class="typst-shape" fill="none" stroke="oklab(55.826% 0.05080 -0.16631)" stroke-width="0.7" stroke-linecap="butt" stroke-linejoin="miter" stroke-miterlimit="4" d="M 0 16.535433 C 0 16.535433 26.461012 16.535433 26.461012 16.535433 "/>
                                                        </g>
                                                        <g transform="translate(0 0)">
                                                            <path class="typst-shape" fill="none" stroke="oklab(55.826% 0.05080 -0.16631)" stroke-width="0.7" stroke-linecap="butt" stroke-linejoin="miter" stroke-miterlimit="4" d="M 0 10.629921 C 0 10.629921 11.499908 10.629921 11.499908 10.629921 "/>
                                                        </g>
                                                        <g transform="translate(0 0)">
                                                            <path class="typst-shape" fill="none" stroke="oklab(55.826% 0.05080 -0.16631)" stroke-width="0.7" stroke-linecap="butt" stroke-linejoin="miter" stroke-miterlimit="4" d="M 0 4.7244096 C 0 4.7244096 3.5811083 4.7244096 3.5811083 4.7244096 "/>
                                                        </g>
                                                        <g transform="translate(2.331108438111461 50.71850393700788)">
                                                            <path class="typst-shape" fill="oklab(55.826% 0.05080 -0.16631)" fill-rule="nonzero" stroke="oklab(55.826% 0.05080 -0.16631)" stroke-width="1" stroke-linecap="butt" stroke-linejoin="miter" stroke-miterlimit="4" d="M 0 1.25 C 0 0.56027 0.56027 0 1.25 0 C 1.93973 0 2.5 0.56027 2.5 1.25 C 2.5 1.93973 1.93973 2.5 1.25 2.5 C 0.56027 2.5 0 1.93973 0 1.25 "/>
                                                        </g>
                                                        <g transform="translate(10.24990803914599 44.81299212598425)">
                                                            <path class="typst-shape" fill="oklab(55.826% 0.05080 -0.16631)" fill-rule="nonzero" stroke="oklab(55.826% 0.05080 -0.16631)" stroke-width="1" stroke-linecap="butt" stroke-linejoin="miter" stroke-miterlimit="4" d="M 0 1.25 C 0 0.56027 0.56027 0 1.25 0 C 1.93973 0 2.5 0.56027 2.5 1.25 C 2.5 1.93973 1.93973 2.5 1.25 2.5 C 0.56027 2.5 0 1.93973 0 1.25 "/>
                                                        </g>
                                                        <g transform="translate(25.211011145559503 38.90748031496063)">
                                                            <path class="typst-shape" fill="oklab(55.826% 0.05080 -0.16631)" fill-rule="nonzero" stroke="oklab(55.826% 0.05080 -0.16631)" stroke-width="1" stroke-linecap="butt" stroke-linejoin="miter" stroke-miterlimit="4" d="M 0 1.25 C 0 0.56027 0.56027 0 1.25 0 C 1.93973 0 2.5 0.56027 2.5 1.25 C 2.5 1.93973 1.93973 2.5 1.25 2.5 C 0.56027 2.5 0 1.93973 0 1.25 "/>
                                                        </g>
                                                        <g transform="translate(42.37683191991712 33.001968503937015)">
                                                            <path class="typst-shape" fill="oklab(55.826% 0.05080 -0.16631)" fill-rule="nonzero" stroke="oklab(55.826% 0.05080 -0.16631)" stroke-width="1" stroke-linecap="butt" stroke-linejoin="miter" stroke-miterlimit="4" d="M 0 1.25 C 0 0.56027 0.56027 0 1.25 0 C 1.93973 0 2.5 0.56027 2.5 1.25 C 2.5 1.93973 1.93973 2.5 1.25 2.5 C 0.56027 2.5 0 1.93973 0 1.25 "/>
                                                        </g>
                                                        <g transform="translate(50.289012168933425 27.096456692913385)">
                                                            <path class="typst-shape" fill="oklab(55.826% 0.05080 -0.16631)" fill-rule="nonzero" stroke="oklab(55.826% 0.05080 -0.16631)" stroke-width="1" stroke-linecap="butt" stroke-linejoin="miter" stroke-miterlimit="4" d="M 0 1.25 C 0 0.56027 0.56027 0 1.25 0 C 1.93973 0 2.5 0.56027 2.5 1.25 C 2.5 1.93973 1.93973 2.5 1.25 2.5 C 0.56027 2.5 0 1.93973 0 1.25 "/>
                                                        </g>
                                                        <g transform="translate(42.37683191991712 21.190944881889767)">
                                                            <path class="typst-shape" fill="oklab(55.826% 0.05080 -0.16631)" fill-rule="nonzero" stroke="oklab(55.826% 0.05080 -0.16631)" stroke-width="1" stroke-linecap="butt" stroke-linejoin="miter" stroke-miterlimit="4" d="M 0 1.25 C 0 0.56027 0.56027 0 1.25 0 C 1.93973 0 2.5 0.56027 2.5 1.25 C 2.5 1.93973 1.93973 2.5 1.25 2.5 C 0.56027 2.5 0 1.93973 0 1.25 "/>
                                                        </g>
                                                        <g transform="translate(25.211011145559503 15.285433070866139)">
                                                            <path class="typst-shape" fill="oklab(55.826% 0.05080 -0.16631)" fill-rule="nonzero" stroke="oklab(55.826% 0.05080 -0.16631)" stroke-width="1" stroke-linecap="butt" stroke-linejoin="miter" stroke-miterlimit="4" d="M 0 1.25 C 0 0.56027 0.56027 0 1.25 0 C 1.93973 0 2.5 0.56027 2.5 1.25 C 2.5 1.93973 1.93973 2.5 1.25 2.5 C 0.56027 2.5 0 1.93973 0 1.25 "/>
                                                        </g>
                                                        <g transform="translate(10.24990803914599 9.37992125984252)">
                                                            <path class="typst-shape" fill="oklab(55.826% 0.05080 -0.16631)" fill-rule="nonzero" stroke="oklab(55.826% 0.05080 -0.16631)" stroke-width="1" stroke-linecap="butt" stroke-linejoin="miter" stroke-miterlimit="4" d="M 0 1.25 C 0 0.56027 0.56027 0 1.25 0 C 1.93973 0 2.5 0.56027 2.5 1.25 C 2.5 1.93973 1.93973 2.5 1.25 2.5 C 0.56027 2.5 0 1.93973 0 1.25 "/>
                                                        </g>
                                                        <g transform="translate(2.331108438111461 3.4744094488188932)">
                                                            <path class="typst-shape" fill="oklab(55.826% 0.05080 -0.16631)" fill-rule="nonzero" stroke="oklab(55.826% 0.05080 -0.16631)" stroke-width="1" stroke-linecap="butt" stroke-linejoin="miter" stroke-miterlimit="4" d="M 0 1.25 C 0 0.56027 0.56027 0 1.25 0 C 1.93973 0 2.5 0.56027 2.5 1.25 C 2.5 1.93973 1.93973 2.5 1.25 2.5 C 0.56027 2.5 0 1.93973 0 1.25 "/>
                                                        </g>
                                                    </g>
                                                </g>
                                            </g>
                                            <g transform="translate(0 56.69291338582677)">
                                                <path class="typst-shape" fill="none" stroke="#000000" stroke-width="0.7" stroke-linecap="square" stroke-linejoin="miter" stroke-miterlimit="4" d="M 0 0 L 56.692913 0 "/>
                                            </g>
                                            <g transform="translate(0 0)">
                                                <path class="typst-shape" fill="none" stroke="#000000" stroke-width="0.7" stroke-linecap="square" stroke-linejoin="miter" stroke-miterlimit="4" d="M 0 0 L 56.692913 0 "/>
                                            </g>
                                            <g transform="translate(0 0)">
                                                <path class="typst-shape" fill="none" stroke="#000000" stroke-width="0.7" stroke-linecap="square" stroke-linejoin="miter" stroke-miterlimit="4" d="M 0 0 L 0.0000000000000034714398 56.692913 "/>
                                            </g>
                                            <g transform="translate(56.69291338582677 0)">
                                                <path class="typst-shape" fill="none" stroke="#000000" stroke-width="0.7" stroke-linecap="square" stroke-linejoin="miter" stroke-miterlimit="4" d="M 0 0 L 0.0000000000000034714398 56.692913 "/>
                                            </g>
                                        </g>
                                    </g>
                                </g>
                            </g>
                        </g>
                    </g>
                </g>
            </g>
        </g>
    </g>
    <defs id="clip-path">
        <clipPath id="c37EA92627A5555F441CAFAB2F6FF6010">
            <path d="M 0 0 L 56.692913 0 L 56.692913 56.692913 L 0 56.692913 Z "/>
        </clipPath>
    </defs>
</svg>
