<svg class="typst-doc" viewBox="0 0 56.69291338582677 56.69291338582677" width="56.69291338582677pt" height="56.69291338582677pt" xmlns="http://www.w3.org/2000/svg" xmlns:xlink="http://www.w3.org/1999/xlink" xmlns:h5="http://www.w3.org/1999/xhtml">
    <g>
        <g transform="translate(0 0)">
            <g class="typst-group">
                <g>
                    <g transform="translate(0 0)">
                        <g class="typst-group">
                            <g>
                                <g transform="translate(-0 -0)">
                                    <path class="typst-shape" fill="none" stroke="#000000" stroke-width="0" stroke-linecap="butt" stroke-linejoin="miter" stroke-miterlimit="4" d="M 0 0 L 0 56.692913 L 56.692913 56.692913 L 56.692913 0 Z "/>
                                </g>
                                <g transform="translate(0 0)">
                                    <g class="typst-group">
                                        <g>
                                            <g transform="translate(0 0)">
                                                <g class="typst-group" clip-path="url(#cFB1C534FC218D17E7F091D87010A2777)">
                                                    <g>
                                                        <g transform="translate(0 0)">
                                                            <path class="typst-shape" fill="none" stroke="oklab(55.826% 0.05080 -0.16631)" stroke-width="0.7" stroke-linecap="butt" stroke-linejoin="miter" stroke-miterlimit="4" d="M 8.098988 43.921432 C 8.098988 43.921432 21.5973 37.69144 21.5973 37.69144 C 21.5973 37.69144 35.09561 41.429436 35.09561 41.429436 C 35.09561 41.429436 48.593925 31.461452 48.593925 31.461452 "/>
                                                        </g>
                                                        <g transform="translate(0 0)">
                                                            <path class="typst-shape" fill="none" stroke="oklab(55.826% 0.05080 -0.16631)" stroke-width="0.7" stroke-linecap="butt" stroke-linejoin="miter" stroke-miterlimit="4" stroke-dashoffset="0" stroke-dasharray="" d="M 8.098988 37.69144 C 8.098988 37.69144 8.098988 50.151424 8.098988 50.151424 "/>
                                                        </g>
                                                        <g transform="translate(0 0)">
                                                            <path class="typst-shape" fill="none" stroke="oklab(55.826% 0.05080 -0.16631)" stroke-width="0.7" stroke-linecap="butt" stroke-linejoin="miter" stroke-miterlimit="4" stroke-dashoffset="0" stroke-dasharray="" d="M 21.5973 33.95345 C 21.5973 33.95345 21.5973 41.429436 21.5973 41.429436 "/>
                                                        </g>
                                                        <g transform="translate(0 0)">
                                                            <path class="typst-shape" fill="none" stroke="oklab(55.826% 0.05080 -0.16631)" stroke-width="0.7" stroke-linecap="butt" stroke-linejoin="miter" stroke-miterlimit="4" stroke-dashoffset="0" stroke-dasharray="" d="M 35.09561 35.199448 C 35.09561 35.199448 35.09561 47.659428 35.09561 47.659428 "/>
                                                        </g>
                                                        <g transform="translate(0 0)">
                                                            <path class="typst-shape" fill="none" stroke="oklab(55.826% 0.05080 -0.16631)" stroke-width="0.7" stroke-linecap="butt" stroke-linejoin="miter" stroke-miterlimit="4" stroke-dashoffset="0" stroke-dasharray="" d="M 48.593925 26.477459 C 48.593925 26.477459 48.593925 36.445446 48.593925 36.445446 "/>
                                                        </g>
                                                        <g transform="translate(7.098987626546684 42.92143289781085)">
                                                            <path class="typst-shape" fill="oklab(55.826% 0.05080 -0.16631)" fill-rule="nonzero" stroke="oklab(55.826% 0.05080 -0.16631)" stroke-width="1" stroke-linecap="butt" stroke-linejoin="miter" stroke-miterlimit="4" d="M 0 1 C 0 0.448216 0.448216 0 1 0 C 1.551784 0 2 0.448216 2 1 C 2 1.551784 1.551784 2 1 2 C 0.448216 2 0 1.551784 0 1 "/>
                                                        </g>
                                                        <g transform="translate(20.597300337457824 36.691442415851874)">
                                                            <path class="typst-shape" fill="oklab(55.826% 0.05080 -0.16631)" fill-rule="nonzero" stroke="oklab(55.826% 0.05080 -0.16631)" stroke-width="1" stroke-linecap="butt" stroke-linejoin="miter" stroke-miterlimit="4" d="M 0 1 C 0 0.448216 0.448216 0 1 0 C 1.551784 0 2 0.448216 2 1 C 2 1.551784 1.551784 2 1 2 C 0.448216 2 0 1.551784 0 1 "/>
                                                        </g>
                                                        <g transform="translate(34.09561304836896 40.42943670502726)">
                                                            <path class="typst-shape" fill="oklab(55.826% 0.05080 -0.16631)" fill-rule="nonzero" stroke="oklab(55.826% 0.05080 -0.16631)" stroke-width="1" stroke-linecap="butt" stroke-linejoin="miter" stroke-miterlimit="4" d="M 0 1 C 0 0.448216 0.448216 0 1 0 C 1.551784 0 2 0.448216 2 1 C 2 1.551784 1.551784 2 1 2 C 0.448216 2 0 1.551784 0 1 "/>
                                                        </g>
                                                        <g transform="translate(47.5939257592801 30.46145193389288)">
                                                            <path class="typst-shape" fill="oklab(55.826% 0.05080 -0.16631)" fill-rule="nonzero" stroke="oklab(55.826% 0.05080 -0.16631)" stroke-width="1" stroke-linecap="butt" stroke-linejoin="miter" stroke-miterlimit="4" d="M 0 1 C 0 0.448216 0.448216 0 1 0 C 1.551784 0 2 0.448216 2 1 C 2 1.551784 1.551784 2 1 2 C 0.448216 2 0 1.551784 0 1 "/>
                                                        </g>
                                                    </g>
                                                </g>
                                            </g>
                                            <g transform="translate(0 0)">
                                                <g class="typst-group" clip-path="url(#c656621370EE253133E35B33794DD060E)">
                                                    <g>
                                                        <g transform="translate(0 0)">
                                                            <path class="typst-shape" fill="none" stroke="oklab(55.826% 0.05080 -0.16631)" stroke-width="0.7" stroke-linecap="butt" stroke-linejoin="miter" stroke-miterlimit="4" d="M 8.098988 19.00147 C 8.098988 19.00147 8.098988 25.23146 8.098988 25.23146 C 8.098988 25.23146 21.5973 25.23146 21.5973 25.23146 C 21.5973 25.23146 21.5973 6.54149 21.5973 6.54149 C 21.5973 6.54149 35.09561 6.54149 35.09561 6.54149 C 35.09561 6.54149 35.09561 12.771481 35.09561 12.771481 C 35.09561 12.771481 48.593925 12.771481 48.593925 12.771481 "/>
                                                        </g>
                                                        <g transform="translate(6.598987626546684 17.501470969974914)">
                                                            <path class="typst-shape" fill="oklab(55.826% 0.05080 -0.16631)" fill-rule="nonzero" stroke="oklab(55.826% 0.05080 -0.16631)" stroke-width="1" stroke-linecap="butt" stroke-linejoin="miter" stroke-miterlimit="4" d="M 0 1.5 C 0 0.672324 0.672324 0 1.5 0 C 2.327676 0 3 0.672324 3 1.5 C 3 2.327676 2.327676 3 1.5 3 C 0.672324 3 0 2.327676 0 1.5 "/>
                                                        </g>
                                                        <g transform="translate(20.097300337457824 23.73146145193389)">
                                                            <path class="typst-shape" fill="oklab(55.826% 0.05080 -0.16631)" fill-rule="nonzero" stroke="oklab(55.826% 0.05080 -0.16631)" stroke-width="1" stroke-linecap="butt" stroke-linejoin="miter" stroke-miterlimit="4" d="M 0 1.5 C 0 0.672324 0.672324 0 1.5 0 C 2.327676 0 3 0.672324 3 1.5 C 3 2.327676 2.327676 3 1.5 3 C 0.672324 3 0 2.327676 0 1.5 "/>
                                                        </g>
                                                        <g transform="translate(33.59561304836896 5.041490006056938)">
                                                            <path class="typst-shape" fill="oklab(55.826% 0.05080 -0.16631)" fill-rule="nonzero" stroke="oklab(55.826% 0.05080 -0.16631)" stroke-width="1" stroke-linecap="butt" stroke-linejoin="miter" stroke-miterlimit="4" d="M 0 1.5 C 0 0.672324 0.672324 0 1.5 0 C 2.327676 0 3 0.672324 3 1.5 C 3 2.327676 2.327676 3 1.5 3 C 0.672324 3 0 2.327676 0 1.5 "/>
                                                        </g>
                                                        <g transform="translate(47.0939257592801 11.271480488015925)">
                                                            <path class="typst-shape" fill="oklab(55.826% 0.05080 -0.16631)" fill-rule="nonzero" stroke="oklab(55.826% 0.05080 -0.16631)" stroke-width="1" stroke-linecap="butt" stroke-linejoin="miter" stroke-miterlimit="4" d="M 0 1.5 C 0 0.672324 0.672324 0 1.5 0 C 2.327676 0 3 0.672324 3 1.5 C 3 2.327676 2.327676 3 1.5 3 C 0.672324 3 0 2.327676 0 1.5 "/>
                                                        </g>
                                                    </g>
                                                </g>
                                            </g>
                                            <g transform="translate(0 56.69291338582677)">
                                                <path class="typst-shape" fill="none" stroke="#000000" stroke-width="0.7" stroke-linecap="square" stroke-linejoin="miter" stroke-miterlimit="4" d="M 0 0 L 56.692913 0 "/>
                                            </g>
                                            <g transform="translate(0 0)">
                                                <path class="typst-shape" fill="none" stroke="#000000" stroke-width="0.7" stroke-linecap="square" stroke-linejoin="miter" stroke-miterlimit="4" d="M 0 0 L 56.692913 0 "/>
                                            </g>
                                            <g transform="translate(0 0)">
                                                <path class="typst-shape" fill="none" stroke="#000000" stroke-width="0.7" stroke-linecap="square" stroke-linejoin="miter" stroke-miterlimit="4" d="M 0 0 L 0.0000000000000034714398 56.692913 "/>
                                            </g>
                                            <g transform="translate(56.69291338582677 0)">
                                                <path class="typst-shape" fill="none" stroke="#000000" stroke-width="0.7" stroke-linecap="square" stroke-linejoin="miter" stroke-miterlimit="4" d="M 0 0 L 0.0000000000000034714398 56.692913 "/>
                                            </g>
                                        </g>
                                    </g>
                                </g>
                            </g>
                        </g>
                    </g>
                </g>
            </g>
        </g>
    </g>
    <defs id="clip-path">
        <clipPath id="cFB1C534FC218D17E7F091D87010A2777">
            <path d="M 0 0 L 56.692913 0 L 56.692913 56.692913 L 0 56.692913 Z "/>
        </clipPath>
        <clipPath id="c656621370EE253133E35B33794DD060E">
            <path d="M 0 0 L 56.692913 0 L 56.692913 56.692913 L 0 56.692913 Z "/>
        </clipPath>
    </defs>
</svg>
