<svg class="typst-doc" viewBox="0 0 56.69291338582677 56.69291338582677" width="56.69291338582677pt" height="56.69291338582677pt" xmlns="http://www.w3.org/2000/svg" xmlns:xlink="http://www.w3.org/1999/xlink" xmlns:h5="http://www.w3.org/1999/xhtml">
    <g>
        <g transform="translate(0 0)">
            <g class="typst-group">
                <g>
                    <g transform="translate(0 0)">
                        <g class="typst-group">
                            <g>
                                <g transform="translate(-0 -0)">
                                    <path class="typst-shape" fill="none" stroke="#000000" stroke-width="0" stroke-linecap="butt" stroke-linejoin="miter" stroke-miterlimit="4" d="M 0 0 L 0 56.692913 L 56.692913 56.692913 L 56.692913 0 Z "/>
                                </g>
                                <g transform="translate(0 0)">
                                    <g class="typst-group">
                                        <g>
                                            <g transform="translate(0 0)">
                                                <g class="typst-group" clip-path="url(#c907BEBEF116040CE5920D2E2BA027050)">
                                                    <g>
                                                        <g transform="translate(44.24826026764375 6.581372461192387)">
                                                            <path class="typst-shape" fill="oklab(86.650% 0.01136 -0.03712)" fill-rule="nonzero" stroke="oklab(86.650% 0.01136 -0.03712)" stroke-width="1" stroke-linecap="butt" stroke-linejoin="miter" stroke-miterlimit="4" d="M 0 4.3456655 C 0 1.9477968 1.9477968 0 4.3456655 0 C 6.743534 0 8.691331 1.9477968 8.691331 4.3456655 C 8.691331 6.743534 6.743534 8.691331 4.3456655 8.691331 C 1.9477968 8.691331 0 6.743534 0 4.3456655 "/>
                                                        </g>
                                                        <g transform="translate(20.822428570867196 5.814999974584345)">
                                                            <path class="typst-shape" fill="oklab(80.660% 0.01902 -0.06222)" fill-rule="nonzero" stroke="oklab(80.660% 0.01902 -0.06222)" stroke-width="1" stroke-linecap="butt" stroke-linejoin="miter" stroke-miterlimit="4" d="M 0 2.6383672 C 0 1.1825584 1.1825584 0 2.6383672 0 C 4.0941763 0 5.2767344 1.1825584 5.2767344 2.6383672 C 5.2767344 4.0941763 4.0941763 5.2767344 2.6383672 5.2767344 C 1.1825584 5.2767344 0 4.0941763 0 2.6383672 "/>
                                                        </g>
                                                        <g transform="translate(23.34922323551768 44.56921918897974)">
                                                            <path class="typst-shape" fill="oklab(71.432% 0.03083 -0.10090)" fill-rule="nonzero" stroke="oklab(71.432% 0.03083 -0.10090)" stroke-width="1" stroke-linecap="butt" stroke-linejoin="miter" stroke-miterlimit="4" d="M 0 3.8650656 C 0 1.7323842 1.7323842 0 3.8650656 0 C 5.997747 0 7.730131 1.7323842 7.730131 3.8650656 C 7.730131 5.997747 5.997747 7.730131 3.8650656 7.730131 C 1.7323842 7.730131 0 5.997747 0 3.8650656 "/>
                                                        </g>
                                                        <g transform="translate(29.73456941041231 4.935187630542585)">
                                                            <path class="typst-shape" fill="oklab(71.947% 0.03017 -0.09874)" fill-rule="nonzero" stroke="oklab(71.947% 0.03017 -0.09874)" stroke-width="1" stroke-linecap="butt" stroke-linejoin="miter" stroke-miterlimit="4" d="M 0 3.1638 C 0 1.4180658 1.4180658 0 3.1638 0 C 4.909534 0 6.3276 1.4180658 6.3276 3.1638 C 6.3276 4.909534 4.909534 6.3276 3.1638 6.3276 C 1.4180658 6.3276 0 4.909534 0 3.1638 "/>
                                                        </g>
                                                        <g transform="translate(33.602832976393984 24.716401105118884)">
                                                            <path class="typst-shape" fill="oklab(93.091% 0.00311 -0.01012)" fill-rule="nonzero" stroke="oklab(93.091% 0.00311 -0.01012)" stroke-width="1" stroke-linecap="butt" stroke-linejoin="miter" stroke-miterlimit="4" d="M 0 3.6684256 C 0 1.644247 1.644247 0 3.6684256 0 C 5.692604 0 7.336851 1.644247 7.336851 3.6684256 C 7.336851 5.692604 5.692604 7.336851 3.6684256 7.336851 C 1.644247 7.336851 0 5.692604 0 3.6684256 "/>
                                                        </g>
                                                        <g transform="translate(12.314311503228115 22.757975750315378)">
                                                            <path class="typst-shape" fill="oklab(55.826% 0.05080 -0.16631)" fill-rule="nonzero" stroke="oklab(55.826% 0.05080 -0.16631)" stroke-width="1" stroke-linecap="butt" stroke-linejoin="miter" stroke-miterlimit="4" d="M 0 4.0725965 C 0 1.825403 1.825403 0 4.0725965 0 C 6.31979 0 8.145193 1.825403 8.145193 4.0725965 C 8.145193 6.31979 6.31979 8.145193 4.0725965 8.145193 C 1.825403 8.145193 0 6.31979 0 4.0725965 "/>
                                                        </g>
                                                        <g transform="translate(32.930921671494076 15.385953227878964)">
                                                            <path class="typst-shape" fill="oklab(63.382% 0.04113 -0.13464)" fill-rule="nonzero" stroke="oklab(63.382% 0.04113 -0.13464)" stroke-width="1" stroke-linecap="butt" stroke-linejoin="miter" stroke-miterlimit="4" d="M 0 4.0323505 C 0 1.8073639 1.8073639 0 4.0323505 0 C 6.2573366 0 8.064701 1.8073639 8.064701 4.0323505 C 8.064701 6.2573366 6.2573366 8.064701 4.0323505 8.064701 C 1.8073639 8.064701 0 6.2573366 0 4.0323505 "/>
                                                        </g>
                                                        <g transform="translate(43.57658553267846 45.254547275459814)">
                                                            <path class="typst-shape" fill="oklab(90.506% 0.00642 -0.02095)" fill-rule="nonzero" stroke="oklab(90.506% 0.00642 -0.02095)" stroke-width="1" stroke-linecap="butt" stroke-linejoin="miter" stroke-miterlimit="4" d="M 0 3.3393786 C 0 1.4967629 1.4967629 0 3.3393786 0 C 5.181994 0 6.678757 1.4967629 6.678757 3.3393786 C 6.678757 5.181994 5.181994 6.678757 3.3393786 6.678757 C 1.4967629 6.678757 0 5.181994 0 3.3393786 "/>
                                                        </g>
                                                        <g transform="translate(6.1801285586353645 35.95802086148563)">
                                                            <path class="typst-shape" fill="oklab(80.020% 0.01984 -0.06490)" fill-rule="nonzero" stroke="oklab(80.020% 0.01984 -0.06490)" stroke-width="1" stroke-linecap="butt" stroke-linejoin="miter" stroke-miterlimit="4" d="M 0 1.9188591 C 0 0.8600633 0.8600633 0 1.9188591 0 C 2.9776547 0 3.8377182 0.8600633 3.8377182 1.9188591 C 3.8377182 2.9776547 2.9776547 3.8377182 1.9188591 3.8377182 C 0.8600633 3.8377182 0 2.9776547 0 1.9188591 "/>
                                                        </g>
                                                        <g transform="translate(18.073651346539084 42.34165773585144)">
                                                            <path class="typst-shape" fill="oklab(95.514% 0.00001 0.00004)" fill-rule="nonzero" stroke="oklab(95.514% 0.00001 0.00004)" stroke-width="1" stroke-linecap="butt" stroke-linejoin="miter" stroke-miterlimit="4" d="M 0 2.1791348 C 0 0.9767231 0.9767231 0 2.1791348 0 C 3.3815465 0 4.3582697 0.9767231 4.3582697 2.1791348 C 4.3582697 3.3815465 3.3815465 4.3582697 2.1791348 4.3582697 C 0.9767231 4.3582697 0 3.3815465 0 2.1791348 "/>
                                                        </g>
                                                    </g>
                                                </g>
                                            </g>
                                            <g transform="translate(0 56.69291338582677)">
                                                <path class="typst-shape" fill="none" stroke="#000000" stroke-width="0.7" stroke-linecap="square" stroke-linejoin="miter" stroke-miterlimit="4" d="M 0 0 L 56.692913 0 "/>
                                            </g>
                                            <g transform="translate(0 0)">
                                                <path class="typst-shape" fill="none" stroke="#000000" stroke-width="0.7" stroke-linecap="square" stroke-linejoin="miter" stroke-miterlimit="4" d="M 0 0 L 56.692913 0 "/>
                                            </g>
                                            <g transform="translate(0 0)">
                                                <path class="typst-shape" fill="none" stroke="#000000" stroke-width="0.7" stroke-linecap="square" stroke-linejoin="miter" stroke-miterlimit="4" d="M 0 0 L 0.0000000000000034714398 56.692913 "/>
                                            </g>
                                            <g transform="translate(56.69291338582677 0)">
                                                <path class="typst-shape" fill="none" stroke="#000000" stroke-width="0.7" stroke-linecap="square" stroke-linejoin="miter" stroke-miterlimit="4" d="M 0 0 L 0.0000000000000034714398 56.692913 "/>
                                            </g>
                                        </g>
                                    </g>
                                </g>
                            </g>
                        </g>
                    </g>
                </g>
            </g>
        </g>
    </g>
    <defs id="clip-path">
        <clipPath id="c907BEBEF116040CE5920D2E2BA027050">
            <path d="M 0 0 L 56.692913 0 L 56.692913 56.692913 L 0 56.692913 Z "/>
        </clipPath>
    </defs>
</svg>
