<svg class="typst-doc" viewBox="0 0 56.69291338582677 56.69291338582677" width="56.69291338582677pt" height="56.69291338582677pt" xmlns="http://www.w3.org/2000/svg" xmlns:xlink="http://www.w3.org/1999/xlink" xmlns:h5="http://www.w3.org/1999/xhtml">
    <g>
        <g transform="translate(0 0)">
            <g class="typst-group">
                <g>
                    <g transform="translate(0 0)">
                        <g class="typst-group">
                            <g>
                                <g transform="translate(-0 -0)">
                                    <path class="typst-shape" fill="none" stroke="#000000" stroke-width="0" stroke-linecap="butt" stroke-linejoin="miter" stroke-miterlimit="4" d="M 0 0 L 0 56.692913 L 56.692913 56.692913 L 56.692913 0 Z "/>
                                </g>
                                <g transform="translate(0 0)">
                                    <g class="typst-group">
                                        <g>
                                            <g transform="translate(0 0)">
                                                <g class="typst-group" clip-path="url(#c60AE42770565678E9C6DBFD4C493718B)">
                                                    <g>
                                                        <g transform="translate(0 0)">
                                                            <path class="typst-shape" fill="none" stroke="oklab(55.826% 0.05080 -0.16631)" stroke-width="0.7" stroke-linecap="butt" stroke-linejoin="miter" stroke-miterlimit="4" d="M 4.7244096 56.692913 C 4.7244096 56.692913 4.7244096 53.111805 4.7244096 53.111805 "/>
                                                        </g>
                                                        <g transform="translate(0 0)">
                                                            <path class="typst-shape" fill="none" stroke="oklab(55.826% 0.05080 -0.16631)" stroke-width="0.7" stroke-linecap="butt" stroke-linejoin="miter" stroke-miterlimit="4" d="M 10.629921 56.692913 C 10.629921 56.692913 10.629921 45.193005 10.629921 45.193005 "/>
                                                        </g>
                                                        <g transform="translate(0 0)">
                                                            <path class="typst-shape" fill="none" stroke="oklab(55.826% 0.05080 -0.16631)" stroke-width="0.7" stroke-linecap="butt" stroke-linejoin="miter" stroke-miterlimit="4" d="M 16.535433 56.692913 C 16.535433 56.692913 16.535433 30.231903 16.535433 30.231903 "/>
                                                        </g>
                                                        <g transform="translate(0 0)">
                                                            <path class="typst-shape" fill="none" stroke="oklab(55.826% 0.05080 -0.16631)" stroke-width="0.7" stroke-linecap="butt" stroke-linejoin="miter" stroke-miterlimit="4" d="M 22.440945 56.692913 C 22.440945 56.692913 22.440945 13.066081 22.440945 13.066081 "/>
                                                        </g>
                                                        <g transform="translate(0 0)">
                                                            <path class="typst-shape" fill="none" stroke="oklab(55.826% 0.05080 -0.16631)" stroke-width="0.7" stroke-linecap="butt" stroke-linejoin="miter" stroke-miterlimit="4" d="M 28.346457 56.692913 C 28.346457 56.692913 28.346457 5.153901 28.346457 5.153901 "/>
                                                        </g>
                                                        <g transform="translate(0 0)">
                                                            <path class="typst-shape" fill="none" stroke="oklab(55.826% 0.05080 -0.16631)" stroke-width="0.7" stroke-linecap="butt" stroke-linejoin="miter" stroke-miterlimit="4" d="M 34.25197 56.692913 C 34.25197 56.692913 34.25197 13.066081 34.25197 13.066081 "/>
                                                        </g>
                                                        <g transform="translate(0 0)">
                                                            <path class="typst-shape" fill="none" stroke="oklab(55.826% 0.05080 -0.16631)" stroke-width="0.7" stroke-linecap="butt" stroke-linejoin="miter" stroke-miterlimit="4" d="M 40.157482 56.692913 C 40.157482 56.692913 40.157482 30.231903 40.157482 30.231903 "/>
                                                        </g>
                                                        <g transform="translate(0 0)">
                                                            <path class="typst-shape" fill="none" stroke="oklab(55.826% 0.05080 -0.16631)" stroke-width="0.7" stroke-linecap="butt" stroke-linejoin="miter" stroke-miterlimit="4" d="M 46.062992 56.692913 C 46.062992 56.692913 46.062992 45.193005 46.062992 45.193005 "/>
                                                        </g>
                                                        <g transform="translate(0 0)">
                                                            <path class="typst-shape" fill="none" stroke="oklab(55.826% 0.05080 -0.16631)" stroke-width="0.7" stroke-linecap="butt" stroke-linejoin="miter" stroke-miterlimit="4" d="M 51.968502 56.692913 C 51.968502 56.692913 51.968502 53.111805 51.968502 53.111805 "/>
                                                        </g>
                                                        <g transform="translate(3.474409448818897 51.861804947715314)">
                                                            <path class="typst-shape" fill="oklab(55.826% 0.05080 -0.16631)" fill-rule="nonzero" stroke="oklab(55.826% 0.05080 -0.16631)" stroke-width="1" stroke-linecap="butt" stroke-linejoin="miter" stroke-miterlimit="4" d="M 0 1.25 C 0 0.56027 0.56027 0 1.25 0 C 1.93973 0 2.5 0.56027 2.5 1.25 C 2.5 1.93973 1.93973 2.5 1.25 2.5 C 0.56027 2.5 0 1.93973 0 1.25 "/>
                                                        </g>
                                                        <g transform="translate(9.37992125984252 43.943005346680785)">
                                                            <path class="typst-shape" fill="oklab(55.826% 0.05080 -0.16631)" fill-rule="nonzero" stroke="oklab(55.826% 0.05080 -0.16631)" stroke-width="1" stroke-linecap="butt" stroke-linejoin="miter" stroke-miterlimit="4" d="M 0 1.25 C 0 0.56027 0.56027 0 1.25 0 C 1.93973 0 2.5 0.56027 2.5 1.25 C 2.5 1.93973 1.93973 2.5 1.25 2.5 C 0.56027 2.5 0 1.93973 0 1.25 "/>
                                                        </g>
                                                        <g transform="translate(15.285433070866139 28.98190224026727)">
                                                            <path class="typst-shape" fill="oklab(55.826% 0.05080 -0.16631)" fill-rule="nonzero" stroke="oklab(55.826% 0.05080 -0.16631)" stroke-width="1" stroke-linecap="butt" stroke-linejoin="miter" stroke-miterlimit="4" d="M 0 1.25 C 0 0.56027 0.56027 0 1.25 0 C 1.93973 0 2.5 0.56027 2.5 1.25 C 2.5 1.93973 1.93973 2.5 1.25 2.5 C 0.56027 2.5 0 1.93973 0 1.25 "/>
                                                        </g>
                                                        <g transform="translate(21.190944881889763 11.816081465909651)">
                                                            <path class="typst-shape" fill="oklab(55.826% 0.05080 -0.16631)" fill-rule="nonzero" stroke="oklab(55.826% 0.05080 -0.16631)" stroke-width="1" stroke-linecap="butt" stroke-linejoin="miter" stroke-miterlimit="4" d="M 0 1.25 C 0 0.56027 0.56027 0 1.25 0 C 1.93973 0 2.5 0.56027 2.5 1.25 C 2.5 1.93973 1.93973 2.5 1.25 2.5 C 0.56027 2.5 0 1.93973 0 1.25 "/>
                                                        </g>
                                                        <g transform="translate(27.096456692913385 3.9039012168933445)">
                                                            <path class="typst-shape" fill="oklab(55.826% 0.05080 -0.16631)" fill-rule="nonzero" stroke="oklab(55.826% 0.05080 -0.16631)" stroke-width="1" stroke-linecap="butt" stroke-linejoin="miter" stroke-miterlimit="4" d="M 0 1.25 C 0 0.56027 0.56027 0 1.25 0 C 1.93973 0 2.5 0.56027 2.5 1.25 C 2.5 1.93973 1.93973 2.5 1.25 2.5 C 0.56027 2.5 0 1.93973 0 1.25 "/>
                                                        </g>
                                                        <g transform="translate(33.00196850393701 11.816081465909651)">
                                                            <path class="typst-shape" fill="oklab(55.826% 0.05080 -0.16631)" fill-rule="nonzero" stroke="oklab(55.826% 0.05080 -0.16631)" stroke-width="1" stroke-linecap="butt" stroke-linejoin="miter" stroke-miterlimit="4" d="M 0 1.25 C 0 0.56027 0.56027 0 1.25 0 C 1.93973 0 2.5 0.56027 2.5 1.25 C 2.5 1.93973 1.93973 2.5 1.25 2.5 C 0.56027 2.5 0 1.93973 0 1.25 "/>
                                                        </g>
                                                        <g transform="translate(38.90748031496063 28.98190224026727)">
                                                            <path class="typst-shape" fill="oklab(55.826% 0.05080 -0.16631)" fill-rule="nonzero" stroke="oklab(55.826% 0.05080 -0.16631)" stroke-width="1" stroke-linecap="butt" stroke-linejoin="miter" stroke-miterlimit="4" d="M 0 1.25 C 0 0.56027 0.56027 0 1.25 0 C 1.93973 0 2.5 0.56027 2.5 1.25 C 2.5 1.93973 1.93973 2.5 1.25 2.5 C 0.56027 2.5 0 1.93973 0 1.25 "/>
                                                        </g>
                                                        <g transform="translate(44.81299212598425 43.943005346680785)">
                                                            <path class="typst-shape" fill="oklab(55.826% 0.05080 -0.16631)" fill-rule="nonzero" stroke="oklab(55.826% 0.05080 -0.16631)" stroke-width="1" stroke-linecap="butt" stroke-linejoin="miter" stroke-miterlimit="4" d="M 0 1.25 C 0 0.56027 0.56027 0 1.25 0 C 1.93973 0 2.5 0.56027 2.5 1.25 C 2.5 1.93973 1.93973 2.5 1.25 2.5 C 0.56027 2.5 0 1.93973 0 1.25 "/>
                                                        </g>
                                                        <g transform="translate(50.71850393700788 51.861804947715314)">
                                                            <path class="typst-shape" fill="oklab(55.826% 0.05080 -0.16631)" fill-rule="nonzero" stroke="oklab(55.826% 0.05080 -0.16631)" stroke-width="1" stroke-linecap="butt" stroke-linejoin="miter" stroke-miterlimit="4" d="M 0 1.25 C 0 0.56027 0.56027 0 1.25 0 C 1.93973 0 2.5 0.56027 2.5 1.25 C 2.5 1.93973 1.93973 2.5 1.25 2.5 C 0.56027 2.5 0 1.93973 0 1.25 "/>
                                                        </g>
                                                    </g>
                                                </g>
                                            </g>
                                            <g transform="translate(0 56.69291338582677)">
                                                <path class="typst-shape" fill="none" stroke="#000000" stroke-width="0.7" stroke-linecap="square" stroke-linejoin="miter" stroke-miterlimit="4" d="M 0 0 L 56.692913 0 "/>
                                            </g>
                                            <g transform="translate(0 0)">
                                                <path class="typst-shape" fill="none" stroke="#000000" stroke-width="0.7" stroke-linecap="square" stroke-linejoin="miter" stroke-miterlimit="4" d="M 0 0 L 56.692913 0 "/>
                                            </g>
                                            <g transform="translate(0 0)">
                                                <path class="typst-shape" fill="none" stroke="#000000" stroke-width="0.7" stroke-linecap="square" stroke-linejoin="miter" stroke-miterlimit="4" d="M 0 0 L 0.0000000000000034714398 56.692913 "/>
                                            </g>
                                            <g transform="translate(56.69291338582677 0)">
                                                <path class="typst-shape" fill="none" stroke="#000000" stroke-width="0.7" stroke-linecap="square" stroke-linejoin="miter" stroke-miterlimit="4" d="M 0 0 L 0.0000000000000034714398 56.692913 "/>
                                            </g>
                                        </g>
                                    </g>
                                </g>
                            </g>
                        </g>
                    </g>
                </g>
            </g>
        </g>
    </g>
    <defs id="clip-path">
        <clipPath id="c60AE42770565678E9C6DBFD4C493718B">
            <path d="M 0 0 L 56.692913 0 L 56.692913 56.692913 L 0 56.692913 Z "/>
        </clipPath>
    </defs>
</svg>
